<svg width="230" height="41" viewBox="0 0 230 44" fill="none" xmlns="http://www.w3.org/2000/svg">
<rect y="2" width="230" height="42" rx="10" fill="url(#paint0_linear_162_2)" fill-opacity="0.27"/>
<path d="M141.256 36.2812C139.299 36.2812 137.5 35.9531 135.859 35.2969C134.219 34.6406 132.795 33.7207 131.588 32.5371C130.381 31.3535 129.443 29.9648 128.775 28.3711C128.119 26.7773 127.791 25.043 127.791 23.168C127.791 21.2812 128.125 19.5293 128.793 17.9121C129.461 16.2949 130.41 14.8828 131.641 13.6758C132.871 12.457 134.33 11.5078 136.018 10.8281C137.705 10.1484 139.557 9.80859 141.572 9.80859C142.979 9.80859 144.367 9.98438 145.738 10.3359C147.109 10.6875 148.381 11.2266 149.553 11.9531L147.355 17.1211C146.758 16.5234 145.955 16.0312 144.947 15.6445C143.951 15.2578 142.826 15.0645 141.572 15.0645C140.072 15.0645 138.713 15.3867 137.494 16.0312C136.287 16.6758 135.326 17.5957 134.611 18.791C133.896 19.9746 133.539 21.3809 133.539 23.0098C133.539 24.2051 133.732 25.3008 134.119 26.2969C134.506 27.2812 135.051 28.1367 135.754 28.8633C136.457 29.5898 137.283 30.1523 138.232 30.5508C139.182 30.9492 140.213 31.1484 141.326 31.1484C142.533 31.1484 143.605 30.9199 144.543 30.4629C145.492 29.9941 146.236 29.3613 146.775 28.5645C147.314 27.7676 147.584 26.8535 147.584 25.8223H140.5V21.041H153.016V25.207C153.016 27.3281 152.529 29.2266 151.557 30.9023C150.584 32.5664 149.219 33.8789 147.461 34.8398C145.703 35.8008 143.635 36.2812 141.256 36.2812ZM168.607 36.2812C166.744 36.2812 164.998 35.9473 163.369 35.2793C161.752 34.5996 160.328 33.6562 159.098 32.4492C157.879 31.2422 156.924 29.8359 156.232 28.2305C155.553 26.6133 155.213 24.8789 155.213 23.0273C155.213 21.1641 155.553 19.4355 156.232 17.8418C156.924 16.2363 157.879 14.8359 159.098 13.6406C160.316 12.4336 161.734 11.4961 163.352 10.8281C164.98 10.1484 166.727 9.80859 168.59 9.80859C170.477 9.80859 172.229 10.1484 173.846 10.8281C175.463 11.4961 176.875 12.4336 178.082 13.6406C179.301 14.8359 180.244 16.2363 180.912 17.8418C181.592 19.4473 181.932 21.1758 181.932 23.0273C181.932 24.8906 181.592 26.625 180.912 28.2305C180.244 29.8359 179.301 31.2422 178.082 32.4492C176.875 33.6562 175.463 34.5996 173.846 35.2793C172.229 35.9473 170.482 36.2812 168.607 36.2812ZM168.555 31.0254C169.633 31.0254 170.635 30.8203 171.561 30.4102C172.486 30 173.295 29.4316 173.986 28.7051C174.678 27.9785 175.217 27.1289 175.604 26.1562C175.99 25.1836 176.184 24.1406 176.184 23.0273C176.184 21.8906 175.984 20.8418 175.586 19.8809C175.199 18.9082 174.66 18.0645 173.969 17.3496C173.277 16.623 172.469 16.0605 171.543 15.6621C170.617 15.2637 169.621 15.0645 168.555 15.0645C167.5 15.0645 166.51 15.2637 165.584 15.6621C164.67 16.0605 163.861 16.623 163.158 17.3496C162.467 18.0645 161.928 18.9082 161.541 19.8809C161.154 20.8418 160.961 21.8906 160.961 23.0273C160.961 24.1523 161.154 25.2012 161.541 26.1738C161.928 27.1465 162.467 27.9961 163.158 28.7227C163.85 29.4375 164.652 30 165.566 30.4102C166.492 30.8203 167.488 31.0254 168.555 31.0254ZM185.078 36V10.0898H190.844V30.8672H200.178V36H185.078ZM202.48 36V10.0898H211.357C213.033 10.0898 214.65 10.3535 216.209 10.8809C217.779 11.3965 219.186 12.1816 220.428 13.2363C221.67 14.291 222.654 15.6211 223.381 17.2266C224.107 18.8203 224.471 20.7012 224.471 22.8691C224.471 25.0488 224.107 26.9648 223.381 28.6172C222.654 30.2578 221.688 31.6289 220.48 32.7305C219.273 33.8203 217.92 34.6406 216.42 35.1914C214.92 35.7305 213.385 36 211.814 36H202.48ZM208.246 30.8672H211.973C212.664 30.8672 213.396 30.7207 214.17 30.4277C214.955 30.1348 215.693 29.6719 216.385 29.0391C217.076 28.3945 217.633 27.5684 218.055 26.5605C218.488 25.541 218.705 24.3105 218.705 22.8691C218.705 21.4395 218.488 20.2383 218.055 19.2656C217.633 18.293 217.076 17.5137 216.385 16.9277C215.693 16.3301 214.955 15.8965 214.17 15.627C213.396 15.3574 212.664 15.2227 211.973 15.2227H208.246V30.8672Z" fill="url(#paint1_linear_162_2)" fill-opacity="0.09"/>
<defs>
<linearGradient id="paint0_linear_162_2" x1="-4.5" y1="41.5" x2="231.5" y2="-5.07545e-06" gradientUnits="userSpaceOnUse">
<stop stop-color="#0D0E12" stop-opacity="0.5"/>
<stop offset="0.498" stop-color="#E27609"/>
<stop offset="1" stop-color="#0D0E12" stop-opacity="0.5"/>
</linearGradient>
<linearGradient id="paint1_linear_162_2" x1="226" y1="23.5" x2="127" y2="23.5" gradientUnits="userSpaceOnUse">
<stop stop-color="#85654E"/>
<stop offset="1" stop-color="#F08114"/>
</linearGradient>
</defs>
</svg>
