<svg width="24" height="24" viewBox="0 0 24 24" fill="none" xmlns="http://www.w3.org/2000/svg">
<g id="bell">
<g id="Rectangle 4" filter="url(#filter0_d_6_24)">
<path fill-rule="evenodd" clip-rule="evenodd" d="M13 3C16.3137 3 19 5.68624 19 8.99995C19 10.9131 19 12.8341 19 14C19 17 21 18 21 18L5 18C5 18 7 17 7 14C7 12.8341 7 10.9131 7 8.99995C7 5.68624 9.68629 3 13 3Z" stroke="#464663" stroke-width="2" stroke-linecap="round" stroke-linejoin="round" />
</g>
<path id="Oval" d="M11 18C11 19.1046 11.8954 20 13 20C14.1046 20 15 19.1046 15 18" stroke="#464663" stroke-width="2" stroke-linecap="round"/>
</g>
<defs>
<filter id="filter0_d_6_24" x="0" y="2" width="26" height="25" filterUnits="userSpaceOnUse" color-interpolation-filters="sRGB">
<feFlood flood-opacity="0" result="BackgroundImageFix"/>
<feColorMatrix in="SourceAlpha" type="matrix" values="0 0 0 0 0 0 0 0 0 0 0 0 0 0 0 0 0 0 127 0" result="hardAlpha"/>
<feOffset dy="4"/>
<feGaussianBlur stdDeviation="2"/>
<feComposite in2="hardAlpha" operator="out"/>
<feColorMatrix type="matrix" values="0 0 0 0 0 0 0 0 0 0 0 0 0 0 0 0 0 0 0.25 0"/>
<feBlend mode="normal" in2="BackgroundImageFix" result="effect1_dropShadow_6_24"/>
<feBlend mode="normal" in="SourceGraphic" in2="effect1_dropShadow_6_24" result="shape"/>
</filter>
</defs>
</svg>
