<svg width="18" height="18" viewBox="0 0 18 18" fill="none" xmlns="http://www.w3.org/2000/svg">
<path d="M6.82739 6.54749H10.3812C11.169 6.54749 11.808 7.25651 11.808 7.97428C11.808 8.76208 11.169 9.40107 10.3812 9.40107H6.82739V6.54749Z" stroke="#FF8000" stroke-width="1.5" stroke-miterlimit="10" stroke-linecap="round" stroke-linejoin="round"/>
<path d="M6.82739 9.39227H10.8889C11.7905 9.39227 12.5171 10.0313 12.5171 10.8191C12.5171 11.6069 11.7905 12.2459 10.8889 12.2459H6.82739V9.39227Z" stroke="#FF8000" stroke-width="1.5" stroke-miterlimit="10" stroke-linecap="round" stroke-linejoin="round"/>
<path d="M9.31348 12.2372V13.664" stroke="#FF8000" stroke-width="1.5" stroke-miterlimit="10" stroke-linecap="round" stroke-linejoin="round"/>
<path d="M7.53687 12.2372V13.664" stroke="#FF8000" stroke-width="1.5" stroke-miterlimit="10" stroke-linecap="round" stroke-linejoin="round"/>
<path d="M9.31348 5.12067V6.54746" stroke="#FF8000" stroke-width="1.5" stroke-miterlimit="10" stroke-linecap="round" stroke-linejoin="round"/>
<path d="M7.53687 5.12067V6.54746" stroke="#FF8000" stroke-width="1.5" stroke-miterlimit="10" stroke-linecap="round" stroke-linejoin="round"/>
<path d="M8.17515 6.54749H5.68921" stroke="#FF8000" stroke-width="1.5" stroke-miterlimit="10" stroke-linecap="round" stroke-linejoin="round"/>
<path d="M8.17515 12.2372H5.68921" stroke="#FF8000" stroke-width="1.5" stroke-miterlimit="10" stroke-linecap="round" stroke-linejoin="round"/>
<path d="M9.1033 16.8793C13.293 16.8793 16.6895 13.4829 16.6895 9.29312C16.6895 5.10337 13.293 1.70691 9.1033 1.70691C4.91355 1.70691 1.51709 5.10337 1.51709 9.29312C1.51709 13.4829 4.91355 16.8793 9.1033 16.8793Z" stroke="#FF8000" stroke-width="1.5" stroke-miterlimit="10"/>
</svg>
