<svg width="24" height="24" viewBox="0 0 24 24" fill="none" xmlns="http://www.w3.org/2000/svg">
<g id="chat">
<path id="Combined Shape" d="M8.82388 18.5881L9.08254 17.6221C8.84641 17.5589 8.59531 17.5843 8.37667 17.6936L8.82388 18.5881ZM4 21L3.01005 20.8586C2.95745 21.2268 3.11355 21.5938 3.41529 21.8112C3.71703 22.0287 4.11454 22.0608 4.44721 21.8944L4 21ZM4.65323 16.4274L5.64318 16.5688C5.69128 16.2321 5.56495 15.8941 5.30783 15.6714L4.65323 16.4274ZM12 20C17.8554 20 23 16.1673 23 11H21C21 14.6693 17.1903 18 12 18V20ZM8.56523 19.554C9.64796 19.8439 10.8029 20 12 20V18C10.9766 18 9.99553 17.8666 9.08254 17.6221L8.56523 19.554ZM4.44721 21.8944L9.2711 19.4825L8.37667 17.6936L3.55279 20.1056L4.44721 21.8944ZM3.66328 16.286L3.01005 20.8586L4.98995 21.1414L5.64318 16.5688L3.66328 16.286ZM1 11C1 13.4332 2.17171 15.6014 3.99863 17.1834L5.30783 15.6714C3.84087 14.4012 3 12.7562 3 11H1ZM12 2C6.14463 2 1 5.83274 1 11H3C3 7.33071 6.80967 4 12 4V2ZM23 11C23 5.83274 17.8554 2 12 2V4C17.1903 4 21 7.33071 21 11H23Z" fill="#717171"/>
</g>
</svg>
