<svg width="32" height="33" viewBox="0 0 32 33" fill="none" xmlns="http://www.w3.org/2000/svg">
<path d="M12.2129 14.8814C12.0796 14.868 11.9196 14.868 11.7729 14.8814C8.59959 14.7747 6.07959 12.1747 6.07959 8.97469C6.07959 5.70802 8.71959 3.05469 11.9996 3.05469C15.2663 3.05469 17.9196 5.70802 17.9196 8.97469C17.9063 12.1747 15.3863 14.7747 12.2129 14.8814Z" stroke="#717171" stroke-width="1.5" stroke-linecap="round" stroke-linejoin="round"/>
<path d="M21.8804 5.7207C24.467 5.7207 26.547 7.81404 26.547 10.3874C26.547 12.9074 24.547 14.9607 22.0537 15.054C21.947 15.0407 21.827 15.0407 21.707 15.054" stroke="#717171" stroke-width="1.5" stroke-linecap="round" stroke-linejoin="round"/>
<path d="M5.54646 19.8007C2.3198 21.9607 2.3198 25.4807 5.54646 27.6274C9.21313 30.0807 15.2265 30.0807 18.8931 27.6274C22.1198 25.4674 22.1198 21.9474 18.8931 19.8007C15.2398 17.3607 9.22646 17.3607 5.54646 19.8007Z" stroke="#717171" stroke-width="1.5" stroke-linecap="round" stroke-linejoin="round"/>
<path d="M24.4531 27.0547C25.4131 26.8547 26.3198 26.468 27.0665 25.8947C29.1465 24.3347 29.1465 21.7614 27.0665 20.2014C26.3331 19.6414 25.4398 19.268 24.4931 19.0547" stroke="#717171" stroke-width="1.5" stroke-linecap="round" stroke-linejoin="round"/>
</svg>
