<svg width="32" height="33" viewBox="0 0 32 33" fill="none" xmlns="http://www.w3.org/2000/svg">
<path d="M12.7595 17.001L8.69287 21.0676" stroke="#717171" stroke-width="1.5" stroke-miterlimit="10" stroke-linecap="round" stroke-linejoin="round"/>
<path d="M8.7334 17.041L12.8001 21.1077" stroke="#717171" stroke-width="1.5" stroke-miterlimit="10" stroke-linecap="round" stroke-linejoin="round"/>
<path d="M18.0405 19.0547H18.0539" stroke="#717171" stroke-width="2" stroke-miterlimit="10" stroke-linecap="round" stroke-linejoin="round"/>
<path d="M23.293 19.0547H23.3063" stroke="#717171" stroke-width="2" stroke-miterlimit="10" stroke-linecap="round" stroke-linejoin="round"/>
<path d="M20.6665 21.6946V21.668" stroke="#717171" stroke-width="2" stroke-miterlimit="10" stroke-linecap="round" stroke-linejoin="round"/>
<path d="M20.6665 16.4407V16.4141" stroke="#717171" stroke-width="2" stroke-miterlimit="10" stroke-linecap="round" stroke-linejoin="round"/>
<path d="M11.9998 29.721H19.9998C26.6665 29.721 29.3332 27.0544 29.3332 20.3877V17.721C29.3332 11.0544 26.6665 8.3877 19.9998 8.3877H11.9998C5.33317 8.3877 2.6665 11.0544 2.6665 17.721V20.3877C2.6665 27.0544 5.33317 29.721 11.9998 29.721Z" stroke="#717171" stroke-width="1.5" stroke-linecap="round" stroke-linejoin="round"/>
<path d="M17.3473 3.05469L17.334 4.40135C17.3206 5.13469 16.734 5.72135 16.0006 5.72135H15.9606C15.2273 5.72135 14.6406 6.32135 14.6406 7.05469C14.6406 7.78802 15.2406 8.38802 15.974 8.38802H17.3073" stroke="#717171" stroke-width="1.5" stroke-linecap="round" stroke-linejoin="round"/>
</svg>
