<svg width="66" height="87" viewBox="0 0 66 87" fill="none" xmlns="http://www.w3.org/2000/svg">
<path fill-rule="evenodd" clip-rule="evenodd" d="M24.7904 32.3387C24.7904 34.2717 23.2234 35.8387 21.2904 35.8387H5.31317C3.38017 35.8387 1.81317 34.2717 1.81317 32.3387C1.81317 30.4058 3.38017 28.8387 5.31317 28.8387H21.2904C23.2234 28.8387 24.7904 30.4058 24.7904 32.3387Z" fill="url(#paint0_linear_8_105)"/>
<path fill-rule="evenodd" clip-rule="evenodd" d="M13.3031 21.0087C15.2361 21.0087 16.8031 22.5757 16.8031 24.5087V40.486C16.8031 42.419 15.2361 43.986 13.3031 43.986C11.3701 43.986 9.80309 42.419 9.80309 40.486V24.5087C9.80309 22.5757 11.3701 21.0087 13.3031 21.0087Z" fill="url(#paint1_linear_8_105)"/>
<path fill-rule="evenodd" clip-rule="evenodd" d="M25.1561 44.2716C26.5229 42.9048 28.739 42.9048 30.1058 44.2716L30.1325 44.2983C31.4993 45.6652 31.4993 47.8812 30.1325 49.2481C28.7657 50.6149 26.5496 50.6149 25.1827 49.2481L25.1561 49.2214C23.7892 47.8545 23.7892 45.6385 25.1561 44.2716Z" fill="url(#paint2_linear_8_105)"/>
<path fill-rule="evenodd" clip-rule="evenodd" d="M35.4743 54.5899C36.8411 53.2231 39.0572 53.2231 40.424 54.5899L40.4507 54.6166C41.8176 55.9835 41.8176 58.1995 40.4507 59.5664C39.0839 60.9332 36.8678 60.9332 35.501 59.5664L35.4743 59.5397C34.1075 58.1729 34.1075 55.9568 35.4743 54.5899Z" fill="url(#paint3_linear_8_105)"/>
<path fill-rule="evenodd" clip-rule="evenodd" d="M30.1311 54.5644C31.4979 55.9313 31.4979 58.1474 30.1311 59.5142L30.0772 59.5681C28.7104 60.9349 26.4943 60.9349 25.1274 59.5681C23.7606 58.2013 23.7606 55.9852 25.1274 54.6184L25.1814 54.5644C26.5482 53.1976 28.7643 53.1976 30.1311 54.5644Z" fill="url(#paint4_linear_8_105)"/>
<path fill-rule="evenodd" clip-rule="evenodd" d="M40.4509 44.2447C41.8177 45.6115 41.8177 47.8276 40.4509 49.1945L40.397 49.2484C39.0302 50.6152 36.8141 50.6152 35.4472 49.2484C34.0804 47.8815 34.0804 45.6655 35.4472 44.2986L35.5012 44.2447C36.868 42.8779 39.0841 42.8779 40.4509 44.2447Z" fill="url(#paint5_linear_8_105)"/>
<path fill-rule="evenodd" clip-rule="evenodd" d="M18.3841 0.604858C25.6598 0.604858 32.4014 4.65992 39.1935 11.4521L54.9088 27.1674C61.701 33.9595 65.7561 40.7011 65.7561 47.9768C65.7561 55.2525 61.701 61.9941 54.9088 68.7863L49.6704 74.0247C42.8783 80.8168 36.1367 84.8719 28.861 84.8719C21.5853 84.8719 14.8437 80.8169 8.05155 74.0247L-7.66378 58.3094C-14.4559 51.5172 -18.511 44.7756 -18.511 37.4999C-18.511 30.2243 -14.4559 23.4827 -7.66378 16.6905L-2.42533 11.4521C4.36682 4.65992 11.1084 0.604859 18.3841 0.604858ZM18.3841 7.60486C13.8733 7.60486 8.82837 10.0979 2.52441 16.4018L-2.71403 21.6403C-9.01799 27.9442 -11.511 32.9891 -11.511 37.4999C-11.511 42.0108 -9.01799 47.0557 -2.71403 53.3596L13.0013 69.0749C19.3053 75.3789 24.3501 77.8719 28.861 77.8719C33.3718 77.8719 38.4167 75.3789 44.7207 69.0749L49.9591 63.8365C56.2631 57.5325 58.7561 52.4876 58.7561 47.9768C58.7561 43.466 56.2631 38.4211 49.9591 32.1171L34.2438 16.4018C27.9398 10.0979 22.8949 7.60486 18.3841 7.60486Z" fill="url(#paint6_linear_8_105)"/>
<path fill-rule="evenodd" clip-rule="evenodd" d="M60.1992 11.5041C61.5524 12.8844 61.5305 15.1004 60.1502 16.4536L57.4786 19.0728L57.4578 19.093C54.6439 21.8064 50.1569 21.838 47.3412 19.0223L47.2626 18.9437C47.2431 18.9242 47.2286 18.9165 47.217 18.9118C47.2028 18.9062 47.1822 18.9012 47.1557 18.9014C47.1029 18.9018 47.0493 18.9207 47.0001 18.9699C46.9681 19.0019 46.9448 19.0469 46.9448 19.1142C46.9448 19.1816 46.9681 19.2266 47.0001 19.2586L49.6193 21.8778C50.9862 23.2446 50.9862 25.4607 49.6193 26.8275C48.2525 28.1944 46.0364 28.1944 44.6696 26.8275L42.0504 24.2083C39.2429 21.4009 39.2429 16.8275 42.0504 14.0201C44.8252 11.2452 49.3727 11.1542 52.2124 13.9939L52.2909 14.0725C52.3182 14.0997 52.3399 14.1116 52.3561 14.1183C52.3746 14.1258 52.3976 14.131 52.4246 14.1311C52.4746 14.1313 52.5334 14.115 52.5938 14.0588L55.2497 11.4551C56.63 10.1019 58.8459 10.1238 60.1992 11.5041Z" fill="url(#paint7_linear_8_105)"/>
<defs>
<linearGradient id="paint0_linear_8_105" x1="44.7616" y1="19.5" x2="-20.3079" y2="58.9305" gradientUnits="userSpaceOnUse">
<stop stop-color="white"/>
<stop offset="1" stop-color="#FFCF3B"/>
</linearGradient>
<linearGradient id="paint1_linear_8_105" x1="44.7616" y1="19.5" x2="-20.3079" y2="58.9305" gradientUnits="userSpaceOnUse">
<stop stop-color="white"/>
<stop offset="1" stop-color="#FFCF3B"/>
</linearGradient>
<linearGradient id="paint2_linear_8_105" x1="44.7616" y1="19.5" x2="-20.3079" y2="58.9305" gradientUnits="userSpaceOnUse">
<stop stop-color="white"/>
<stop offset="1" stop-color="#FFCF3B"/>
</linearGradient>
<linearGradient id="paint3_linear_8_105" x1="44.7616" y1="19.5" x2="-20.3079" y2="58.9305" gradientUnits="userSpaceOnUse">
<stop stop-color="white"/>
<stop offset="1" stop-color="#FFCF3B"/>
</linearGradient>
<linearGradient id="paint4_linear_8_105" x1="44.7616" y1="19.5" x2="-20.3079" y2="58.9305" gradientUnits="userSpaceOnUse">
<stop stop-color="white"/>
<stop offset="1" stop-color="#FFCF3B"/>
</linearGradient>
<linearGradient id="paint5_linear_8_105" x1="44.7616" y1="19.5" x2="-20.3079" y2="58.9305" gradientUnits="userSpaceOnUse">
<stop stop-color="white"/>
<stop offset="1" stop-color="#FFCF3B"/>
</linearGradient>
<linearGradient id="paint6_linear_8_105" x1="44.7616" y1="19.5" x2="-20.3079" y2="58.9305" gradientUnits="userSpaceOnUse">
<stop stop-color="white"/>
<stop offset="1" stop-color="#FFCF3B"/>
</linearGradient>
<linearGradient id="paint7_linear_8_105" x1="44.7616" y1="19.5" x2="-20.3079" y2="58.9305" gradientUnits="userSpaceOnUse">
<stop stop-color="white"/>
<stop offset="1" stop-color="#FFCF3B"/>
</linearGradient>
</defs>
</svg>
