<svg width="204" height="51" viewBox="0 0 204 51" fill="none" xmlns="http://www.w3.org/2000/svg">
<path d="M8.58438 8H179V44H2.91835e-05L8.58438 8Z" fill="#464663"/>
<path d="M9.374 38L13.998 14.2H25.354C27.3713 14.2 29.0033 14.574 30.25 15.322C31.4967 16.07 32.358 17.1127 32.834 18.45C33.31 19.7647 33.378 21.3173 33.038 23.108C32.7433 24.7173 32.154 26.134 31.27 27.358C30.4087 28.582 29.2187 29.534 27.7 30.214C26.204 30.8713 24.3227 31.2 22.056 31.2H17.534L16.242 38H9.374ZM18.69 25.42H22.634C23.654 25.42 24.436 25.2047 24.98 24.774C25.524 24.3433 25.898 23.6407 26.102 22.666C26.306 21.6687 26.1813 20.9547 25.728 20.524C25.2973 20.0933 24.64 19.878 23.756 19.878H19.744L18.69 25.42ZM31.5802 38L36.2042 14.2H43.0722L39.6042 31.982H50.8923L49.7362 38H31.5802ZM49.0666 38L62.3946 14.2H70.0106L74.5326 38H67.4606L65.1146 21.204H65.0126L56.6826 38H49.0666ZM57.1246 34.294L58.1446 29.126H69.0246L67.9706 34.294H57.1246ZM79.2355 38L80.8675 29.908L74.5775 14.2H81.8535L85.2535 24.366H85.3555L91.8835 14.2H100.078L87.4975 30.622L86.1035 38H79.2355ZM105.274 38.306C102.849 38.306 100.809 37.7847 99.1542 36.742C97.5222 35.6993 96.3775 34.2033 95.7202 32.254C95.0629 30.282 94.9949 27.9247 95.5162 25.182C96.0149 22.5527 96.9329 20.4107 98.2702 18.756C99.6302 17.1013 101.296 15.8773 103.268 15.084C105.24 14.2907 107.416 13.894 109.796 13.894C110.59 13.894 111.406 13.9507 112.244 14.064C113.083 14.1773 113.865 14.3247 114.59 14.506C115.338 14.6647 115.939 14.8233 116.392 14.982L117.072 15.254L115.066 20.694L114.114 20.524C113.276 20.388 112.471 20.286 111.7 20.218C110.93 20.15 110.148 20.116 109.354 20.116C108.108 20.116 107.008 20.2973 106.056 20.66C105.127 21 104.356 21.5667 103.744 22.36C103.132 23.1533 102.69 24.264 102.418 25.692C102.124 27.1653 102.101 28.378 102.35 29.33C102.622 30.2593 103.144 30.9393 103.914 31.37C104.685 31.8007 105.705 32.016 106.974 32.016C107.677 32.016 108.459 31.982 109.32 31.914C110.182 31.8233 111.1 31.7327 112.074 31.642L113.264 31.506L113.638 36.742L112.414 37.116C111.485 37.4107 110.374 37.6827 109.082 37.932C107.79 38.1813 106.521 38.306 105.274 38.306ZM125.476 38.306C124.026 38.306 122.654 38.1133 121.362 37.728C120.07 37.3427 118.948 36.7307 117.996 35.892C117.067 35.0533 116.41 33.954 116.024 32.594C115.639 31.234 115.628 29.602 115.99 27.698L118.608 14.2H125.51L122.892 27.63C122.666 28.718 122.688 29.568 122.96 30.18C123.232 30.792 123.686 31.234 124.32 31.506C124.955 31.7553 125.726 31.88 126.632 31.88C127.924 31.88 129.024 31.5853 129.93 30.996C130.86 30.384 131.472 29.2847 131.766 27.698L134.418 14.2H141.082L138.328 28.208C137.875 30.52 137.048 32.424 135.846 33.92C134.668 35.416 133.194 36.5267 131.426 37.252C129.658 37.9547 127.675 38.306 125.476 38.306ZM138.395 38L143.019 14.2H154.375C156.392 14.2 158.024 14.574 159.271 15.322C160.517 16.07 161.379 17.1127 161.855 18.45C162.331 19.7647 162.399 21.3173 162.059 23.108C161.764 24.7173 161.175 26.134 160.291 27.358C159.429 28.582 158.239 29.534 156.721 30.214C155.225 30.8713 153.343 31.2 151.077 31.2H146.555L145.263 38H138.395ZM147.711 25.42H151.655C152.675 25.42 153.457 25.2047 154.001 24.774C154.545 24.3433 154.919 23.6407 155.123 22.666C155.327 21.6687 155.202 20.9547 154.749 20.524C154.318 20.0933 153.661 19.878 152.777 19.878H148.765L147.711 25.42Z" fill="#0D0E12"/>
<path d="M158.255 32.5445C155.44 24.036 159.427 18.3769 161.773 16.6109C160.196 15.854 158.578 13.1453 158.78 10.9943C158.983 8.84321 160.802 7.80752 162.622 7.80752C164.442 7.80752 167.071 9.60006 168.405 9.60006C169.74 9.60006 171.438 7.76769 177.181 7.80752C182.924 7.84736 188.141 10.9544 188.181 10.9544C190.769 11.1775 191.47 13.4374 191.497 14.5395C195.833 15.8779 196.458 18.2839 196.229 19.3196C196.779 18.7779 198.184 18.4565 198.817 18.3636C197.458 18.7141 196.31 19.6516 195.905 20.0765L196.067 20.5943C197.329 19.8295 199.72 20.0366 200.758 20.2358C197.62 20.3951 196.431 21.0192 196.229 21.3113V21.6698C197.588 21.7654 198.655 22.1611 199.019 22.347H196.431L196.35 22.8648C198.485 23.2154 199.963 24.2856 200.435 24.7769C198.72 23.7571 196.997 23.4491 196.35 23.4225C196.415 23.9961 196.188 24.4317 196.067 24.5777L198.938 27.8839L195.784 24.9761C194.53 27.1669 194.207 26.0914 194.126 26.5694C193.317 30.4732 191.335 30.8317 190.972 30.7122C190.68 30.6166 190.904 29.9553 191.052 29.6367C191.311 29.1905 191.457 27.7512 191.497 27.0873L189.071 26.9678C188.747 29.6765 187.372 30.7122 186.887 30.7122C186.499 30.7122 186.456 30.2342 186.483 29.9952L186.563 27.9636C185.62 28.6142 183.587 30.2979 183.005 31.8275C182.277 33.7396 182.883 35.8508 183.207 35.9703C183.466 36.0659 184.932 34.7885 185.633 34.1379C186.119 36.2491 184.299 38.1612 183.894 38.4798C183.49 38.7985 183.773 39.2765 183.733 39.6749C183.692 40.0732 182.317 43.6184 178.435 43.5388C174.552 43.4591 172.369 39.7147 172.166 38.5595C171.924 37.1653 170.71 37.3645 170.67 37.3645C167.718 37.9222 168.688 42.1047 168.688 42.0649C157.81 33.9387 160.236 25.3346 160.196 25.2947C158.352 26.5376 158.133 30.6458 158.255 32.5445Z" fill="#464663"/>
<path d="M182.56 38.3206L179.567 38.1215L180.578 36.7671L180.376 37.9223L181.063 37.0061L180.982 37.9223L181.872 37.2053V38.0418L182.56 37.4841V38.3206Z" fill="#0D0E12"/>
<path d="M183.247 38.0018C182.891 37.9062 182.829 37.2715 182.843 36.9661C183.587 36.6474 184.609 35.6383 185.027 35.1736C184.8 36.6076 183.746 37.6566 183.247 38.0018Z" fill="#0D0E12"/>
<path d="M178.558 37.962C178.202 37.8664 178.14 37.2317 178.153 36.9263C178.897 36.6077 179.919 35.5985 180.337 35.1338C180.111 36.5678 179.056 37.6168 178.558 37.962Z" fill="#0D0E12"/>
<path d="M178.224 9.13776C180.651 9.25726 183.886 10.2133 184.776 10.5718C185.666 10.9303 186.555 11.3685 186.555 11.3685C188.205 11.6234 189.373 12.6697 189.75 13.161V15.0332C189.966 15.0996 190.729 15.3599 192.055 15.8697C193.382 16.3796 194.28 17.3038 194.563 17.7021L194.846 19.8133C195.088 20.0125 195.331 20.0922 195.412 22.044C195.477 23.6055 194.819 24.7926 194.482 25.1909C194.32 24.5855 193.282 23.903 192.783 23.6374C192.096 23.8498 190.591 24.3146 190.074 24.4739C189.427 24.6731 187.445 25.4299 185.059 25.3104C183.15 25.2148 182.673 24.0225 182.673 23.4382C183.32 23.4781 183.684 23.3187 183.684 23.0001C183.684 22.6814 182.511 22.6415 181.257 23.0001C180.004 23.3586 177.658 24.3544 176 25.1511C174.342 25.9478 173.129 27.7005 172.805 28.9752C172.482 30.2499 172.482 31.9229 173.412 34.2731C174.342 36.6233 175.717 37.898 177.416 38.8939C178.774 39.6906 181.433 39.757 182.592 39.6906C182.026 41.1246 180.449 41.9611 178.588 42.2798C176.728 42.5985 173.574 39.8101 173.129 37.659C172.36 33.7951 169.853 32.4009 168.842 31.6441C167.831 30.8872 166.173 30.9271 164.434 29.8117C163.043 28.9194 162.938 27.0233 163.059 26.1868C162.541 26.3143 162.088 28.1785 161.927 29.0947C161.118 26.5453 161.643 23.9694 162.007 23.0001C161.749 23.0957 160.902 24.1552 160.511 24.6731C160.228 23.3586 161.077 21.2474 161.927 19.7735C162.592 18.619 164.449 17.3449 165.348 16.8186C165.185 16.8747 164.689 16.8733 163.585 16.5469C161.967 16.0689 160.552 13.639 160.228 12.8822C159.905 12.1253 159.864 9.93444 161.077 9.33693C162.291 8.73942 164.07 9.2971 165.405 9.93444C166.739 10.5718 168.155 10.8905 168.68 10.8506C169.206 10.8108 171.066 10.0539 172.037 9.77511C173.007 9.49627 175.798 9.01826 178.224 9.13776Z" fill="#0D0E12"/>
<path d="M162.703 14.8582C165.259 16.4515 168.513 14.566 169.821 13.4241C169.12 13.3179 167.556 13.0019 166.909 12.5876C166.262 12.1733 164.752 10.8216 164.078 10.1976C162.752 9.27342 161.692 9.67973 161.328 9.9984C162.072 9.93466 163.094 11.0075 163.512 11.5519C163.091 11.0739 161.827 10.7951 161.247 10.7154L161.328 11.7511C161.975 11.9742 162.784 12.5345 163.107 12.7868C162.816 12.6593 162.42 12.7337 162.258 12.7868L163.755 14.0615C163.404 14.3403 162.703 14.89 162.703 14.8582Z" fill="#464663"/>
<path d="M170.063 13.1452L171.277 12.1494C169.659 12.468 167.071 11.5651 165.979 11.0739C167.273 12.8266 169.241 13.1851 170.063 13.1452Z" fill="#464663"/>
<path d="M186.725 25.8924L188.585 25.3745C188.707 29.119 187.089 30.0351 187.089 29.9953C187.316 29.2305 186.941 26.9414 186.725 25.8924Z" fill="#0D0E12"/>
<path d="M189.273 26.4501L189.152 25.2949C191.093 25.0081 192.899 25.3878 193.56 25.6136C193.592 28.1629 192.36 29.5439 191.74 29.9156C192.16 29.3739 192.319 27.1936 192.346 26.1712L191.74 26.6492L191.457 26.1712L191.052 26.5297L190.769 26.0916L190.324 26.4501L190.041 25.8526L189.273 26.4501Z" fill="#0D0E12"/>
<path d="M166.545 36.2888C164.248 35.2691 163.647 32.7303 163.633 31.5884C163.795 31.8539 164.693 32.3851 166.99 32.3851C169.287 32.3851 170.508 33.9253 170.832 34.6954C165.534 33.3809 166.545 36.3286 166.545 36.2888Z" fill="#0D0E12"/>
<path d="M176.938 14.6987C175.903 14.6668 175.051 14.1808 174.755 13.9418C174.755 13.5037 176.938 13.7028 177.302 13.7028C177.666 13.7028 177.707 13.0655 179.284 13.1053C180.861 13.1451 181.225 13.4638 181.63 13.7028C181.953 13.894 183.301 15.6414 183.935 16.4912C182.6 16.5842 179.858 16.7541 179.567 16.6904C179.203 16.6107 176.979 14.6987 176.938 14.6987Z" fill="#464663"/>
<path d="M182.277 18.2439C183.894 15.8857 186.887 15.8804 188.181 16.1725C187.291 15.1368 184.784 15.4953 183.49 16.0929C182.196 16.6904 181.832 17.8057 181.63 17.9252C181.468 18.0208 181.239 17.9651 181.144 17.9252C180.756 18.0208 180.713 18.9476 180.74 19.3991C180.352 19.3991 180.147 19.585 180.093 19.6779L180.416 23.4622L181.832 23.0638L181.63 21.6298C181.872 21.6696 182.438 21.5103 182.6 20.7535C182.73 20.148 182.007 19.8373 181.63 19.7576L181.994 19.1999C182.398 19.5186 182.924 19.5584 183.288 19.0804C183.579 18.698 182.735 18.3634 182.277 18.2439Z" fill="#464663"/>
<path d="M173.299 25.0954C175.79 23.3427 179.109 22.4265 180.457 22.1875C180.484 22.3999 180.538 22.8169 180.538 22.785C179.276 22.5619 175.186 24.2323 173.299 25.0954Z" fill="#464663"/>
<path d="M173.096 24.458C175.102 23.1196 178.785 21.6962 180.376 21.1518V20.9128C176.817 22.06 174.04 23.7543 173.096 24.458Z" fill="#464663"/>
<path d="M174.714 22.0281C176.946 21.1359 179.365 20.8331 180.295 20.7933V20.4746C178.321 20.4746 175.752 21.5103 174.714 22.0281Z" fill="#464663"/>
<path d="M188.262 17.8059C187.971 17.1685 187.251 16.5843 186.927 16.3718C187.615 16.4913 189.394 17.6067 190.041 17.7262C190.688 17.8457 191.497 17.5669 192.185 17.6067C192.872 17.6465 193.317 18.0449 193.802 18.1245C194.19 18.1883 194.557 17.8855 194.692 17.7262C194.827 18.0449 195.072 18.8973 194.975 19.7577C194.854 20.8333 192.71 23.8208 192.71 23.781C192.832 22.586 191.821 20.0764 190.971 19.8374C190.122 19.5984 188.626 18.6025 188.262 17.8059Z" fill="#464663"/>
<path d="M170.913 19.1204C171.411 18.6027 171.802 18.4034 172.328 18.961C173.299 19.9907 171.721 21.1967 170.872 20.6739C170.574 20.4905 170.29 19.7675 170.913 19.1204Z" fill="#464663"/>
<path d="M166.828 30.513C165.955 30.1624 166.087 29.4623 166.424 29.1586C167.394 28.2822 169.335 30.3138 168.891 30.752C168.619 31.0192 167.92 30.9511 166.828 30.513Z" fill="#464663"/>
<path d="M168.244 27.8441C167.939 26.9646 168.72 26.3192 169.174 26.3702C170.482 26.5174 170.408 29.242 169.78 29.1984C169.398 29.1719 168.624 28.9434 168.244 27.8441Z" fill="#464663"/>
<path d="M167.927 22.6656C168.496 21.9253 168.931 21.5468 169.335 21.7893C171.196 22.9046 168.486 25.6532 167.677 24.5378C167.454 24.2303 167.214 23.5911 167.927 22.6656Z" fill="#464663"/>
<path d="M163.957 22.8648C164.527 22.1244 164.847 21.7297 165.21 22.0283C166.181 22.825 164.766 25.693 163.957 24.8963C163.686 24.6291 163.245 23.7903 163.957 22.8648Z" fill="#464663"/>
<path d="M162.748 20.5405C163.246 20.0228 163.578 19.7337 163.957 19.9569C164.709 20.4 163.108 22.1079 162.703 21.8291C162.415 21.6307 162.125 21.1877 162.748 20.5405Z" fill="#464663"/>
<path d="M166.06 20.5146C166.558 19.9969 167.016 19.7337 167.394 19.9569C168.146 20.4 166.666 22.3469 166.262 22.0681C165.974 21.8697 165.437 21.1617 166.06 20.5146Z" fill="#464663"/>
<path d="M166.585 17.6863C167.084 17.1686 167.406 16.7785 167.787 16.998C168.567 17.4473 166.909 19.6382 166.262 19.2399C165.964 19.0565 165.963 18.3335 166.585 17.6863Z" fill="#464663"/>
<path d="M168.608 18.0847C169.106 17.567 169.538 17.0092 170.144 17.3278C170.941 17.7466 169.457 20.1212 168.608 19.5984C168.31 19.415 167.985 18.7318 168.608 18.0847Z" fill="#464663"/>
<path d="M169.726 15.0118C170.225 14.4941 170.917 14.3071 171.317 14.8581C171.519 15.137 170.576 16.6955 169.726 16.1726C169.429 15.9893 169.104 15.6589 169.726 15.0118Z" fill="#464663"/>
<path d="M171.641 12.5876C172.611 11.7112 173.59 11.1809 174.229 11.4324C174.431 11.512 172.085 14.1809 171.519 13.8764C171.21 13.7106 170.935 13.2249 171.641 12.5876Z" fill="#464663"/>
<path d="M171.681 15.8141C172.179 15.2964 172.841 14.7499 173.339 15.2166C174.323 16.1385 172.773 17.9095 171.641 17.4075C170.832 17.049 171.058 16.4613 171.681 15.8141Z" fill="#464663"/>
<path d="M174.552 18.0847C175.151 18.4866 175.442 18.8017 175.055 19.2901C174.345 20.1846 172.652 19.0841 173.177 18.244C173.501 17.7262 173.805 17.5823 174.552 18.0847Z" fill="#464663"/>
<path d="M172.288 21.2316C173.004 21.1283 173.622 20.9884 173.622 21.7494C173.622 23.2233 171.219 23.0241 171.155 22.2274C171.128 21.8825 171.392 21.3607 172.288 21.2316Z" fill="#464663"/>
<path d="M164.402 26.9279C164.442 25.6532 165.341 25.3189 165.777 25.454C167.313 25.9309 166.221 29.0789 165.21 28.4017C164.893 28.1892 164.365 28.0887 164.402 26.9279Z" fill="#464663"/>
</svg>
