<svg width="32" height="33" viewBox="0 0 32 33" fill="none" xmlns="http://www.w3.org/2000/svg">
<path d="M11.765 25.1718L12.0237 24.2058C11.7875 24.1426 11.5364 24.168 11.3178 24.2773L11.765 25.1718ZM5.33317 28.3877L4.34322 28.2463C4.29062 28.6145 4.44672 28.9815 4.74846 29.1989C5.0502 29.4164 5.44771 29.4485 5.78038 29.2821L5.33317 28.3877ZM6.20414 22.2909L7.19409 22.4323C7.24219 22.0956 7.11586 21.7576 6.85875 21.5349L6.20414 22.2909ZM15.9998 26.721C23.6962 26.721 30.3332 21.6944 30.3332 15.0544H28.3332C28.3332 20.1964 23.0311 24.721 15.9998 24.721V26.721ZM11.5064 26.1377C12.9217 26.5167 14.4327 26.721 15.9998 26.721V24.721C14.6063 24.721 13.2693 24.5393 12.0237 24.2058L11.5064 26.1377ZM5.78038 29.2821L12.2122 26.0662L11.3178 24.2773L4.88596 27.4933L5.78038 29.2821ZM5.21419 22.1495L4.34322 28.2463L6.32312 28.5291L7.19409 22.4323L5.21419 22.1495ZM1.6665 15.0544C1.6665 18.1857 3.17365 20.9896 5.54954 23.0469L6.85875 21.5349C4.84281 19.7893 3.6665 17.5087 3.6665 15.0544H1.6665ZM15.9998 3.3877C8.30352 3.3877 1.6665 8.41434 1.6665 15.0544H3.6665C3.6665 9.91231 8.96856 5.3877 15.9998 5.3877V3.3877ZM30.3332 15.0544C30.3332 8.41434 23.6962 3.3877 15.9998 3.3877V5.3877C23.0311 5.3877 28.3332 9.91231 28.3332 15.0544H30.3332Z" fill="#717171"/>
</svg>
