<svg width="32" height="28" viewBox="0 0 32 28" fill="none" xmlns="http://www.w3.org/2000/svg">
<path fill-rule="evenodd" clip-rule="evenodd" d="M3.57839 3.78393C2.74555 4.55727 2.17282 5.82397 2.17282 7.84766V15.3077C2.17282 16.7711 2.47272 17.8341 2.94165 18.594C3.40242 19.3406 4.07094 19.8682 4.95301 20.1984C5.22523 20.2971 5.50281 20.3763 5.77751 20.4203C5.79992 20.4239 5.82221 20.4281 5.84435 20.4331C6.32983 20.5424 6.87055 20.5949 7.46001 20.5949H20.1928C21.9383 20.5949 23.227 20.1583 24.0744 19.3714C24.9072 18.5981 25.4799 17.3314 25.4799 15.3077V7.84766C25.4799 7.25241 25.4176 6.72745 25.3245 6.19303C25.0599 4.87007 24.4621 4.00434 23.6582 3.44887C22.8284 2.87542 21.6726 2.56052 20.1928 2.56052H7.46001C5.71446 2.56052 4.42581 2.99705 3.57839 3.78393ZM2.0999 2.19169C3.48324 0.907177 5.38139 0.387695 7.46001 0.387695H20.1928C21.9577 0.387695 23.5903 0.760848 24.8935 1.6613C26.2202 2.57808 27.0988 3.96861 27.4582 5.78239L27.4627 5.80629C27.5712 6.4265 27.6528 7.0858 27.6528 7.84766V15.3077C27.6528 17.7455 26.9508 19.6656 25.5529 20.9637C24.1695 22.2482 22.2714 22.7677 20.1928 22.7677H7.46001C6.75732 22.7677 6.06355 22.7065 5.40008 22.5602C4.96496 22.4878 4.56064 22.3677 4.20614 22.2388L4.19742 22.2356L4.19744 22.2356C2.90886 21.7545 1.83332 20.9354 1.09256 19.735C0.359194 18.5466 0 17.0601 0 15.3077V7.84766C0 5.40983 0.701986 3.48975 2.0999 2.19169Z" fill="#717171"/>
<path fill-rule="evenodd" clip-rule="evenodd" d="M25.6279 5.22346C25.8874 4.96523 26.2596 4.85512 26.6179 4.93055C28.1926 5.26206 29.5713 6.00514 30.5458 7.26704C31.5156 8.52291 32 10.1822 32 12.1934V19.6534C32 22.0913 31.298 24.0114 29.9001 25.3094C28.5167 26.5939 26.6186 27.1134 24.54 27.1134H11.8072C10.6441 27.1134 9.53744 26.9572 8.54355 26.5809C6.44987 25.8053 5.03139 24.1695 4.54183 21.7048C4.47022 21.3442 4.58578 20.9719 4.84897 20.7153C5.11216 20.4587 5.48727 20.3525 5.84591 20.4332C6.33138 20.5424 6.8721 20.5949 7.46156 20.5949H20.1943C21.9399 20.5949 23.2285 20.1584 24.0759 19.3715C24.9088 18.5982 25.4815 17.3315 25.4815 15.3078V7.84775C25.4815 7.22922 25.4289 6.695 25.3298 6.21196C25.2563 5.85329 25.3683 5.48169 25.6279 5.22346ZM27.6518 7.59243C27.6535 7.67675 27.6543 7.76185 27.6543 7.84775V15.3078C27.6543 17.7456 26.9523 19.6657 25.5544 20.9638C24.1711 22.2483 22.2729 22.7678 20.1943 22.7678H7.46156C7.37094 22.7678 7.28046 22.7668 7.19018 22.7647C7.66867 23.6406 8.38798 24.2068 9.30138 24.5446L9.30993 24.5477L9.30991 24.5478C9.99525 24.8077 10.8281 24.9406 11.8072 24.9406H24.54C26.2855 24.9406 27.5742 24.5041 28.4216 23.7172C29.2544 22.9438 29.8271 21.6771 29.8271 19.6534V12.1934C29.8271 10.5253 29.4279 9.37441 28.8261 8.59509C28.5132 8.18992 28.1223 7.85508 27.6518 7.59243Z" fill="#717171"/>
<path fill-rule="evenodd" clip-rule="evenodd" d="M13.8168 8.84665C12.3048 8.84665 11.0791 10.0724 11.0791 11.5844C11.0791 13.0964 12.3048 14.3222 13.8168 14.3222C15.3289 14.3222 16.5546 13.0964 16.5546 11.5844C16.5546 10.0724 15.3289 8.84665 13.8168 8.84665ZM8.90625 11.5844C8.90625 8.87239 11.1048 6.67383 13.8168 6.67383C16.5289 6.67383 18.7274 8.87239 18.7274 11.5844C18.7274 14.2965 16.5289 16.495 13.8168 16.495C11.1048 16.495 8.90625 14.2965 8.90625 11.5844Z" fill="#717171"/>
<path fill-rule="evenodd" clip-rule="evenodd" d="M5.53368 7.31152C6.13368 7.31152 6.62009 7.79793 6.62009 8.39793V14.7716C6.62009 15.3716 6.13368 15.858 5.53368 15.858C4.93367 15.858 4.44727 15.3716 4.44727 14.7716V8.39793C4.44727 7.79793 4.93367 7.31152 5.53368 7.31152Z" fill="#717171"/>
<path fill-rule="evenodd" clip-rule="evenodd" d="M22.1074 7.3125C22.7074 7.3125 23.1938 7.7989 23.1938 8.39891V14.7726C23.1938 15.3726 22.7074 15.859 22.1074 15.859C21.5074 15.859 21.021 15.3726 21.021 14.7726V8.39891C21.021 7.7989 21.5074 7.3125 22.1074 7.3125Z" fill="#717171"/>
</svg>
