<svg width="24" height="25" viewBox="0 0 24 25" fill="none" xmlns="http://www.w3.org/2000/svg">
<path d="M5 10.8877C3.9 10.8877 3 11.7877 3 12.8877C3 13.9877 3.9 14.8877 5 14.8877C6.1 14.8877 7 13.9877 7 12.8877C7 11.7877 6.1 10.8877 5 10.8877Z" stroke="#B3B3B3" stroke-width="1.5"/>
<path d="M19 10.8877C17.9 10.8877 17 11.7877 17 12.8877C17 13.9877 17.9 14.8877 19 14.8877C20.1 14.8877 21 13.9877 21 12.8877C21 11.7877 20.1 10.8877 19 10.8877Z" stroke="#B3B3B3" stroke-width="1.5"/>
<path d="M12 10.8877C10.9 10.8877 10 11.7877 10 12.8877C10 13.9877 10.9 14.8877 12 14.8877C13.1 14.8877 14 13.9877 14 12.8877C14 11.7877 13.1 10.8877 12 10.8877Z" stroke="#B3B3B3" stroke-width="1.5"/>
</svg>
