<svg width="32" height="33" viewBox="0 0 32 33" fill="none" xmlns="http://www.w3.org/2000/svg">
<path d="M11.9998 29.7214H19.9998C26.6665 29.7214 29.3332 27.0547 29.3332 20.388V12.388C29.3332 5.72135 26.6665 3.05469 19.9998 3.05469H11.9998C5.33317 3.05469 2.6665 5.72135 2.6665 12.388V20.388C2.6665 27.0547 5.33317 29.7214 11.9998 29.7214Z" stroke="#717171" stroke-width="1.5" stroke-linecap="round" stroke-linejoin="round"/>
<path d="M20.7603 25.0545V19.8545" stroke="#717171" stroke-width="1.5" stroke-miterlimit="10" stroke-linecap="round" stroke-linejoin="round"/>
<path d="M20.7603 10.3207V7.7207" stroke="#717171" stroke-width="1.5" stroke-miterlimit="10" stroke-linecap="round" stroke-linejoin="round"/>
<path d="M20.7611 17.2546C22.6757 17.2546 24.2278 15.7025 24.2278 13.788C24.2278 11.8734 22.6757 10.3213 20.7611 10.3213C18.8465 10.3213 17.2944 11.8734 17.2944 13.788C17.2944 15.7025 18.8465 17.2546 20.7611 17.2546Z" stroke="#717171" stroke-width="1.5" stroke-miterlimit="10" stroke-linecap="round" stroke-linejoin="round"/>
<path d="M11.2397 25.0541V22.4541" stroke="#717171" stroke-width="1.5" stroke-miterlimit="10" stroke-linecap="round" stroke-linejoin="round"/>
<path d="M11.2397 12.9207V7.7207" stroke="#717171" stroke-width="1.5" stroke-miterlimit="10" stroke-linecap="round" stroke-linejoin="round"/>
<path d="M11.2401 22.4548C13.1547 22.4548 14.7068 20.9027 14.7068 18.9882C14.7068 17.0736 13.1547 15.5215 11.2401 15.5215C9.32552 15.5215 7.77344 17.0736 7.77344 18.9882C7.77344 20.9027 9.32552 22.4548 11.2401 22.4548Z" stroke="#717171" stroke-width="1.5" stroke-miterlimit="10" stroke-linecap="round" stroke-linejoin="round"/>
</svg>
