<svg width="39" height="39" viewBox="0 0 39 39" fill="none" xmlns="http://www.w3.org/2000/svg">
<path d="M19.4663 0C9.20466 0 0.798328 7.75247 0 17.6038L10.4696 21.845C11.3565 21.25 12.4289 20.9034 13.5814 20.9034C13.6854 20.9034 13.788 20.9062 13.8892 20.9116L18.5457 14.2986V14.2058C18.5457 10.2266 21.85 6.98828 25.9119 6.98828C29.9738 6.98828 33.2782 10.2266 33.2782 14.2058C33.2782 18.1851 29.9738 21.4247 25.9119 21.4247C25.8557 21.4247 25.8009 21.4234 25.7447 21.422L19.1036 26.0631C19.1079 26.1491 19.1107 26.235 19.1107 26.3197C19.1107 29.3082 16.63 31.7386 13.5814 31.7386C10.9053 31.7386 8.66635 29.8663 8.16037 27.3882L0.671832 24.3546C2.99092 32.3882 10.5244 38.2779 19.4663 38.2779C30.2549 38.2779 39 29.708 39 19.139C39 8.56852 30.2549 0 19.4663 0ZM12.2411 29.0402L9.84192 28.0686C10.2664 28.9365 11.0029 29.6625 11.9797 30.0609C14.0908 30.9234 16.5251 29.9422 17.405 27.8721C17.8308 26.8704 17.8336 25.7651 17.412 24.7607C16.9903 23.7563 16.1934 22.973 15.1716 22.5555C14.1554 22.142 13.0676 22.157 12.1118 22.5104L14.5911 23.5148C16.1484 24.1507 16.8849 25.9029 16.2356 27.4286C15.5876 28.9542 13.7984 29.6761 12.2411 29.0402ZM30.8205 14.206C30.8205 11.5545 28.6181 9.39563 25.9125 9.39563C23.2055 9.39563 21.003 11.5545 21.003 14.206C21.003 16.8574 23.2055 19.0149 25.9125 19.0149C28.6181 19.0149 30.8205 16.8574 30.8205 14.206ZM22.2329 14.1978C22.2329 12.2027 23.8843 10.5856 25.9195 10.5856C27.9561 10.5856 29.6076 12.2027 29.6076 14.1978C29.6076 16.1929 27.9561 17.8099 25.9195 17.8099C23.8843 17.8099 22.2329 16.1929 22.2329 14.1978Z" fill="white"/>
</svg>
