<svg width="27" height="27" viewBox="0 0 27 27" fill="none" xmlns="http://www.w3.org/2000/svg">
<path d="M13.3891 0C6.52567 0 0.903102 5.34055 0.369141 12.1269L7.37174 15.0487C7.96492 14.6388 8.6822 14.4 9.45306 14.4C9.52262 14.4 9.59125 14.4019 9.65893 14.4057L12.7734 9.85008V9.78615C12.7734 7.0449 14.9835 4.81411 17.7003 4.81411C20.4171 4.81411 22.6272 7.0449 22.6272 9.78615C22.6272 12.5274 20.4171 14.7591 17.7003 14.7591C17.6627 14.7591 17.626 14.7582 17.5884 14.7573L13.1466 17.9544C13.1494 18.0137 13.1513 18.0729 13.1513 18.1312C13.1513 20.1899 11.4921 21.8642 9.45306 21.8642C7.66316 21.8642 6.16563 20.5744 5.8272 18.8672L0.818495 16.7775C2.36961 22.3117 7.4084 26.369 13.3891 26.369C20.6051 26.369 26.4543 20.4654 26.4543 13.1845C26.4543 5.90271 20.6051 0 13.3891 0ZM8.5566 20.0053L6.9519 19.336C7.2358 19.9339 7.7284 20.434 8.38175 20.7085C9.79374 21.3026 11.4219 20.6267 12.0104 19.2006C12.2953 18.5106 12.2972 17.7491 12.0151 17.0572C11.7331 16.3653 11.2001 15.8257 10.5167 15.5381C9.83698 15.2532 9.10937 15.2636 8.47012 15.5071L10.1284 16.1989C11.17 16.637 11.6626 17.8441 11.2283 18.8951C10.7949 19.9461 9.5982 20.4434 8.5566 20.0053ZM20.9834 9.78625C20.9834 7.95968 19.5103 6.47249 17.7007 6.47249C15.8901 6.47249 14.417 7.95968 14.417 9.78625C14.417 11.6128 15.8901 13.0991 17.7007 13.0991C19.5103 13.0991 20.9834 11.6128 20.9834 9.78625ZM15.2396 9.7806C15.2396 8.40622 16.3442 7.29223 17.7054 7.29223C19.0676 7.29223 20.1721 8.40622 20.1721 9.7806C20.1721 11.155 19.0676 12.269 17.7054 12.269C16.3442 12.269 15.2396 11.155 15.2396 9.7806Z" fill="#464663"/>
</svg>
