<svg width="32" height="32" viewBox="0 0 32 32" fill="none" xmlns="http://www.w3.org/2000/svg">
<g clip-path="url(#clip0_465_666)">
<path d="M1.15218 1.00677C1.15218 1.00677 2.11644 1.99664 3.27698 0.810502L3.45618 1.15184L4.29244 1.1945L4.48871 1.3481L4.60818 1.03237L4.72764 1.04944L4.94098 1.33957L5.09458 1.16037L5.44444 1.17744L5.65778 1.40784L5.79431 1.2713L7.19378 1.31397L7.52658 1.1177L7.56924 1.31397L8.19218 1.39077L8.44818 1.0409C8.44818 1.0409 8.81511 1.56997 9.48071 1.6041C10.1463 1.64677 11.469 1.56144 11.469 1.56144C11.469 1.56144 11.8615 1.92837 11.998 1.56144C12.1346 1.1945 11.998 1.33104 11.998 1.33104L12.5442 1.31397C12.5442 1.31397 12.7234 1.40784 12.894 0.648369L13.0903 1.05797L13.1842 0.631302L13.79 0.691035C13.79 0.691035 14.0631 0.904369 14.2594 0.417969C14.2594 0.417969 15.7442 1.0409 16.3842 0.435035C16.3842 0.435035 16.7938 0.784902 17.4764 0.725169C18.1591 0.665435 19.2684 1.25424 19.2855 2.12464C19.2855 2.12464 19.5415 1.9113 20.574 1.92837C20.557 1.79184 21.1372 1.3225 20.574 0.955568C20.574 0.955568 21.0434 0.528902 26.5218 1.10917C26.5218 1.10917 26.8119 1.0921 26.5815 0.699568C26.3511 0.307035 26.9484 0.486235 26.8119 0.469169C26.8119 0.469169 26.9911 1.6809 27.6482 0.938502C27.6482 0.938502 29.1671 1.66384 29.1842 0.998235L29.4743 1.17744L30.3106 1.1945C30.3106 1.1945 30.2167 1.6041 31.1724 1.80037C31.1724 1.80037 31.5223 3.37904 31.053 3.63504C31.053 3.63504 31.6418 6.42544 31.2322 11.298L30.3362 11.315L30.686 12.211C30.686 12.211 29.79 12.4841 30.2764 13.3374C30.2764 13.3374 30.7458 13.1412 30.413 13.474C30.413 13.474 30.3362 13.8238 30.8396 13.9262C30.8396 13.9262 30.5495 15.138 31.1554 15.0953C31.1554 15.0953 30.686 16.1876 31.0359 16.4436C31.0359 16.4436 30.7628 16.947 30.8567 17.843C30.8567 17.843 30.7202 17.9966 30.4642 17.7833C30.4642 17.7833 29.9607 18.2356 31.2834 18.099L31.4028 30.7113C31.4028 30.7113 28.9111 29.2692 27.9554 30.2249L29.1244 30.3188L29.0476 30.4724L28.5442 30.4894C28.5442 30.4894 28.5612 31.0526 28.1772 30.5321C28.1772 30.5321 27.2386 31.411 25.5063 30.5492C25.5063 30.5492 24.67 30.899 23.9874 30.37C23.9874 30.37 23.518 30.2761 23.4242 30.7369C23.4242 30.7369 22.6818 30.6004 21.6492 30.9161L21.726 30.643H21.5895L21.5724 30.9758C21.5724 30.9758 21.4188 31.1124 21.2055 31.0356L21.342 30.5662C21.342 30.5662 21.0263 30.4724 20.9154 30.7625L21.1714 30.7028L21.0946 31.0356C21.0946 31.0356 20.4887 31.6414 19.7463 31.155L20.5058 31.0953C20.5058 31.0953 20.6423 31.0014 20.6252 30.8649C20.6252 30.8649 17.6471 30.8222 17.741 31.0612L17.9714 31.2404C17.9714 31.2404 16.9815 31.6073 16.5292 31.3001L16.5122 31.01L16.3586 31.027L16.1026 31.394C16.1026 31.394 15.6759 30.6345 14.3447 31.0612L14.4386 31.394C14.4386 31.394 13.9692 31.3513 13.7986 31.5732L13.0562 30.3614C13.0562 30.3614 11.9639 30.8649 11.4178 30.2846C11.4178 30.2846 11.3239 30.3017 11.2812 30.5748C11.2812 30.5748 10.829 30.5577 10.6156 29.875C10.6156 29.875 10.2658 29.9689 10.4023 30.5748C10.4023 30.5748 10.0354 30.1652 10.0098 29.9348L9.73671 30.2249L9.93298 30.4553L9.83911 30.5748C9.83911 30.5748 9.42951 30.1481 9.25031 30.242L9.26738 30.498L9.08818 30.5577L8.85778 30.2078C8.85778 30.2078 8.60178 30.3444 8.58471 30.5406L8.49084 30.4041L8.35431 30.498H8.17511C8.17511 30.498 8.11538 30.1054 8.02151 30.0457L7.92764 30.3017H7.57778V30.0713L7.24498 30.3017C7.24498 30.3017 6.85244 30.242 6.77564 30.6174L6.56231 30.5236C6.56231 30.5236 6.60498 30.114 6.44284 29.9348C6.44284 29.9348 6.22951 29.8409 6.18684 30.3444C6.18684 30.3444 5.93084 30.4382 5.85404 30.0713H5.67484L5.71751 30.5577C5.71751 30.5577 5.62364 30.2078 4.82151 30.3017C4.82151 30.3017 3.90844 30.3614 3.78898 30.0457L3.71218 30.5321C3.71218 30.5321 3.65244 30.1054 2.79911 30.4894L2.60284 30.4724L2.61991 30.2164H2.50044L2.42364 30.643L2.22738 30.6004C2.22738 30.6004 2.42364 30.2676 2.21031 30.1908C2.21031 30.1908 1.89458 30.2676 1.86044 30.5833L1.66418 30.4894L1.68124 30.0628L0.785244 29.9262C0.785244 29.9262 1.37404 28.8766 0.938844 25.4036C0.938844 25.4036 0.955911 24.1918 1.15218 23.8846L1.62151 23.8676L1.75804 20.5566L1.15218 20.4628C1.15218 20.4628 0.879111 19.234 1.03271 16.4692C1.03271 16.4692 1.12658 16.4094 1.39964 16.6484L1.47644 16.5118L1.20338 16.3582L1.22044 16.0681L1.74951 16.3582L1.79218 15.1892C1.79218 15.1892 0.716978 14.7028 1.39964 12.9705C1.39964 12.9705 0.443911 9.96677 1.10951 2.96944L0.930311 2.87557C0.930311 2.87557 0.870578 3.3449 0.580444 2.89264L0.640177 1.31397L0.990044 1.35664L0.947377 1.4761L0.810844 1.51877L0.870577 2.2441L0.990044 2.26117L1.15218 1.00677Z" fill="url(#paint0_linear_465_666)"/>
<path d="M4.2157 6.69812L11.6994 14.6853C11.6994 14.6853 12.2626 14.6085 12.4418 15.0522C12.621 15.5045 12.3224 15.112 12.3224 15.112L12.092 14.9328L15.1128 18.2096C15.1128 18.2096 14.7458 17.1941 15.2322 18.1157C15.7186 19.0288 16.4952 19.6944 16.4952 19.6944L16.6146 19.5152L16.1624 19.0117C16.1624 19.0117 15.8296 18.6192 16.2989 18.8752L16.8877 19.6346C16.8877 19.6346 16.7512 20.0613 17.2034 20.4368L17.1096 20.121C17.1096 20.121 17.5021 20.3344 17.8349 21L17.8178 20.744L18.1506 21.0597L18.0141 21.2389L21.1288 24.5754C21.1288 24.5754 21.8541 26.2906 25.7453 26.0346C25.7453 26.0346 27.597 23.6794 27.7506 20.1466L25.1736 18.4144L23.6717 18.2779L23.6888 18.0219L24.252 18.2522L24.4482 18.2693L24.1154 17.9962L24.269 17.817L11.8957 9.39465C11.8957 9.39465 11.1192 9.43732 11.1533 8.92532L10.8376 8.90825L10.6584 8.72905L10.4792 8.86558L10.3853 8.77172L10.5048 8.57545L10.0269 8.31945L10.2573 8.60958L10.1378 8.66932L9.63436 8.16585L9.75383 8.02932L7.44983 6.40798C7.44983 6.40798 6.40023 5.28158 4.2157 6.69812Z" fill="white"/>
<path d="M6.58788 19.1738L12.6721 25.0533L8.36282 26.4357L8.09828 26.2736C8.09828 26.2736 8.01295 26.6405 7.62042 26.3845C7.62042 26.3845 7.78255 26.6661 7.96175 26.1797C7.96175 26.1797 7.89348 26.0261 7.79962 26.1797L7.73135 26.3248L7.71428 26.0432L7.53508 26.1626L7.39855 26.1456L7.37295 26.4016L4.79588 24.4901C4.79588 24.4901 4.42895 24.3536 4.71908 23.4661C5.00922 22.5701 6.58788 19.1738 6.58788 19.1738Z" fill="white"/>
<path d="M24.9345 11.6219L25.5575 7.61976L25.3783 7.62829L25.3953 7.78189C25.3953 7.78189 25.3185 8.12323 25.2417 7.82456C25.1649 7.52589 25.3356 7.43203 25.3356 7.43203L25.5404 7.49176L25.5489 7.36376L24.1921 6.37389C24.1921 6.37389 23.7143 6.01549 22.7671 6.31416C21.8199 6.61283 18.8844 7.35523 18.8844 7.35523L24.0044 11.2806L24.0727 11.144L23.8252 11.0246C23.8252 11.0246 23.6631 10.8198 23.9703 10.8283C24.286 10.8368 24.2007 11.4256 24.2007 11.4256H24.4908L24.6529 11.639L24.9345 11.6219Z" fill="white"/>
</g>
<defs>
<linearGradient id="paint0_linear_465_666" x1="16.1328" y1="0.374657" x2="15.8774" y2="31.6342" gradientUnits="userSpaceOnUse">
<stop stop-color="#BB3119"/>
<stop offset="1" stop-color="#812112"/>
</linearGradient>
<clipPath id="clip0_465_666">
<rect width="32" height="32" fill="white"/>
</clipPath>
</defs>
</svg>
