<svg width="32" height="33" viewBox="0 0 32 33" fill="none" xmlns="http://www.w3.org/2000/svg">
<path d="M14.3343 3.65445C15.2676 2.86779 16.7743 2.86779 17.681 3.65445L19.7877 5.45445C20.1877 5.78779 20.9477 6.06779 21.481 6.06779H23.7476C25.161 6.06779 26.321 7.22779 26.321 8.64112V10.9078C26.321 11.4411 26.601 12.1878 26.9343 12.5878L28.7343 14.6945C29.521 15.6278 29.521 17.1345 28.7343 18.0411L26.9343 20.1478C26.601 20.5478 26.321 21.2945 26.321 21.8278V24.0945C26.321 25.5078 25.161 26.6678 23.7476 26.6678H21.481C20.9477 26.6678 20.201 26.9478 19.801 27.2811L17.6943 29.0811C16.761 29.8678 15.2543 29.8678 14.3477 29.0811L12.241 27.2811C11.841 26.9478 11.081 26.6678 10.561 26.6678H8.22765C6.81432 26.6678 5.65432 25.5078 5.65432 24.0945V21.8145C5.65432 21.2945 5.38765 20.5345 5.05432 20.1478L3.25432 18.0278C2.48098 17.1078 2.48098 15.6145 3.25432 14.6945L5.05432 12.5745C5.38765 12.1745 5.65432 11.4278 5.65432 10.9078V8.65445C5.65432 7.24112 6.81432 6.08112 8.22765 6.08112H10.5343C11.0676 6.08112 11.8143 5.80112 12.2143 5.46779L14.3343 3.65445Z" stroke="#717171" stroke-width="1.5" stroke-linecap="round" stroke-linejoin="round"/>
<path d="M16 11.2275V17.6675" stroke="#717171" stroke-width="1.5" stroke-linecap="round" stroke-linejoin="round"/>
<path d="M15.9922 21.7207H16.0042" stroke="#717171" stroke-width="2" stroke-linecap="round" stroke-linejoin="round"/>
</svg>
