<svg width="27" height="27" viewBox="0 0 27 27" fill="none" xmlns="http://www.w3.org/2000/svg">
<path d="M13.6386 0C10.1427 0 6.78679 1.38994 4.31675 3.86162C1.84466 6.3333 0.454102 9.68917 0.454102 13.1845C0.454102 16.6798 1.84466 20.0357 4.31675 22.5074C6.78679 24.9791 10.1427 26.369 13.6386 26.369C17.1346 26.369 20.4904 24.9791 22.9605 22.5074C25.4326 20.0357 26.8231 16.6798 26.8231 13.1845C26.8231 9.68917 25.4326 6.3333 22.9605 3.86162C20.4904 1.38994 17.1346 0 13.6386 0Z" fill="#464663"/>
<path d="M6.42211 13.0454C10.2662 11.3709 12.829 10.2669 14.1103 9.73357C17.7732 8.21055 18.5333 7.94604 19.0298 7.93709C19.139 7.93532 19.3821 7.96231 19.5407 8.09065C19.6725 8.19881 19.7096 8.34507 19.7282 8.44767C19.7446 8.55026 19.7673 8.78408 19.7488 8.9666C19.551 11.0514 18.692 16.1105 18.2552 18.4456C18.0719 19.4337 17.7072 19.765 17.355 19.7973C16.5886 19.8678 16.0077 19.2913 15.266 18.8053C14.1062 18.0445 13.4511 17.5711 12.3242 16.8289C11.0223 15.9711 11.8669 15.4995 12.6085 14.7291C12.8022 14.5274 16.1766 11.4589 16.2405 11.1806C16.2487 11.1458 16.2569 11.016 16.1787 10.9476C16.1024 10.879 15.9891 10.9025 15.9067 10.921C15.7893 10.9474 13.9373 12.1727 10.3445 14.5968C9.81919 14.9581 9.34331 15.1343 8.91481 15.125C8.44511 15.1149 7.53868 14.8588 6.86503 14.6401C6.041 14.3716 5.38383 14.2297 5.44152 13.7738C5.47036 13.5365 5.79791 13.2936 6.42211 13.0454Z" fill="#0D0E12"/>
</svg>
