<svg width="27" height="27" viewBox="0 0 27 27" fill="none" xmlns="http://www.w3.org/2000/svg">
<rect width="26.369" height="26.369" rx="5.49355" fill="#464663"/>
<path d="M18.071 14.4598C17.8045 14.1137 17.8808 13.9598 18.071 13.6504C18.0744 13.6469 20.274 10.5207 20.5006 9.46055L20.502 9.45984C20.6146 9.07349 20.502 8.78955 19.9574 8.78955H18.1555C17.6967 8.78955 17.4852 9.03323 17.3719 9.30587C17.3719 9.30587 16.4545 11.5647 15.1566 13.0288C14.7377 13.4519 14.544 13.5875 14.3153 13.5875C14.2027 13.5875 14.0276 13.4519 14.0276 13.0656V9.45984C14.0276 8.9965 13.8992 8.78955 13.5194 8.78955H10.686C10.3983 8.78955 10.2273 9.00568 10.2273 9.20698C10.2273 9.64631 10.8763 9.74731 10.9436 10.9834V13.6652C10.9436 14.2529 10.8399 14.3609 10.6098 14.3609C9.99726 14.3609 8.51052 12.093 7.62946 9.49728C7.4516 8.99368 7.27786 8.79026 6.8157 8.79026H5.01306C4.49871 8.79026 4.39502 9.03394 4.39502 9.30657C4.39502 9.78828 5.00757 12.1834 7.24352 15.3477C8.7337 17.5076 10.8323 18.6779 12.7414 18.6779C13.8889 18.6779 14.029 18.418 14.029 17.9709C14.029 15.9071 13.9253 15.7121 14.5001 15.7121C14.7665 15.7121 15.2252 15.8477 16.2965 16.8895C17.5209 18.1249 17.7221 18.6779 18.4075 18.6779H20.2094C20.7231 18.6779 20.9834 18.418 20.8337 17.9052C20.491 16.8267 18.1754 14.6082 18.071 14.4598Z" fill="#0D0E12"/>
</svg>
