<svg width="159" height="39" viewBox="0 0 159 39" fill="none" xmlns="http://www.w3.org/2000/svg">
<path d="M6.47412 6H138.118L139 33H-1.82719e-05L6.47412 6Z" fill="url(#paint0_linear_6_62)"/>
<path d="M9.28973 29L12.8719 10.5625H21.6692C23.232 10.5625 24.4962 10.8523 25.462 11.4317C26.4278 12.0112 27.095 12.8189 27.4638 13.8549C27.8325 14.8734 27.8852 16.0762 27.6218 17.4634C27.3936 18.7101 26.937 19.8076 26.2522 20.7558C25.5849 21.704 24.6631 22.4415 23.4866 22.9683C22.3276 23.4775 20.8702 23.7322 19.1143 23.7322H15.6111L14.6103 29H9.28973ZM16.5067 19.2545H19.562C20.3522 19.2545 20.958 19.0877 21.3794 18.754C21.8009 18.4204 22.0906 17.8761 22.2486 17.121C22.4067 16.3484 22.3101 15.7953 21.9589 15.4616C21.6253 15.128 21.116 14.9612 20.4312 14.9612H17.3232L16.5067 19.2545ZM26.4925 29L30.0747 10.5625H35.3952L32.7086 24.338H41.4532L40.5577 29H26.4925ZM40.0389 29L50.3639 10.5625H56.2639L59.767 29H54.2884L52.471 15.9884H52.392L45.9389 29H40.0389ZM46.2813 26.129L47.0715 22.1255H55.5L54.6835 26.129H46.2813ZM63.4103 29L64.6745 22.7313L59.8018 10.5625H65.4384L68.0723 18.438H68.1513L73.2084 10.5625H79.5562L69.8107 23.2844L68.7308 29H63.4103ZM83.582 29.2371C81.7031 29.2371 80.1228 28.8332 78.8409 28.0254C77.5766 27.2177 76.6899 26.0588 76.1807 24.5487C75.6714 23.021 75.6188 21.1948 76.0226 19.0701C76.4089 17.0332 77.1201 15.3738 78.1561 14.092C79.2097 12.8102 80.5003 11.8619 82.028 11.2474C83.5556 10.6328 85.2414 10.3255 87.0851 10.3255C87.6997 10.3255 88.3318 10.3694 88.9815 10.4572C89.6312 10.545 90.237 10.6591 90.7989 10.7996C91.3784 10.9225 91.8437 11.0454 92.1949 11.1683L92.7217 11.3791L91.1677 15.5933L90.4302 15.4616C89.7805 15.3563 89.1571 15.2773 88.5601 15.2246C87.9631 15.1719 87.3573 15.1456 86.7427 15.1456C85.7769 15.1456 84.9253 15.286 84.1878 15.567C83.4678 15.8304 82.8708 16.2694 82.3967 16.884C81.9226 17.4985 81.5802 18.359 81.3695 19.4652C81.1412 20.6066 81.1237 21.546 81.3168 22.2835C81.5275 23.0034 81.9314 23.5302 82.5284 23.8639C83.1254 24.1975 83.9156 24.3643 84.8989 24.3643C85.4433 24.3643 86.0491 24.338 86.7163 24.2853C87.3836 24.215 88.0948 24.1448 88.8498 24.0746L89.7717 23.9692L90.0614 28.0254L89.1132 28.3152C88.3933 28.5435 87.5329 28.7542 86.532 28.9473C85.5311 29.1405 84.5478 29.2371 83.582 29.2371ZM99.2322 29.2371C98.1084 29.2371 97.0461 29.0878 96.0452 28.7893C95.0443 28.4908 94.1751 28.0167 93.4376 27.367C92.7176 26.7173 92.2084 25.8656 91.9099 24.8121C91.6114 23.7585 91.6026 22.4942 91.8836 21.0192L93.9117 10.5625H99.2586L97.2304 20.9665C97.0548 21.8094 97.0724 22.4679 97.2831 22.942C97.4938 23.4161 97.845 23.7585 98.3367 23.9692C98.8283 24.1624 99.4254 24.2589 100.128 24.2589C101.129 24.2589 101.98 24.0307 102.683 23.5741C103.403 23.1 103.877 22.2484 104.105 21.0192L106.159 10.5625H111.322L109.188 21.4143C108.837 23.2054 108.196 24.6804 107.266 25.8393C106.353 26.9982 105.211 27.8586 103.842 28.4205C102.472 28.9649 100.935 29.2371 99.2322 29.2371ZM109.24 29L112.822 10.5625H121.619C123.182 10.5625 124.446 10.8523 125.412 11.4317C126.378 12.0112 127.045 12.8189 127.414 13.8549C127.783 14.8734 127.835 16.0762 127.572 17.4634C127.344 18.7101 126.887 19.8076 126.202 20.7558C125.535 21.704 124.613 22.4415 123.437 22.9683C122.278 23.4775 120.82 23.7322 119.064 23.7322H115.561L114.56 29H109.24ZM116.457 19.2545H119.512C120.302 19.2545 120.908 19.0877 121.33 18.754C121.751 18.4204 122.041 17.8761 122.199 17.121C122.357 16.3484 122.26 15.7953 121.909 15.4616C121.575 15.128 121.066 14.9612 120.381 14.9612H117.273L116.457 19.2545Z" fill="white"/>
<path d="M124.197 24.7346C122.09 18.2679 125.075 13.9668 126.831 12.6247C125.65 12.0494 124.439 9.99073 124.591 8.35589C124.742 6.72104 126.104 5.93389 127.467 5.93389C128.829 5.93389 130.797 7.29626 131.796 7.29626C132.795 7.29626 134.067 5.90361 138.366 5.93389C142.665 5.96416 146.57 8.32561 146.601 8.32561C148.538 8.49515 149.063 10.2128 149.083 11.0504C152.329 12.0676 152.797 13.8962 152.625 14.6834C153.037 14.2716 154.089 14.0274 154.563 13.9568C153.546 14.2232 152.686 14.9356 152.383 15.2586L152.504 15.6522C153.449 15.0709 155.239 15.2283 156.016 15.3797C153.667 15.5008 152.777 15.9751 152.625 16.1971V16.4696C153.642 16.5422 154.442 16.843 154.714 16.9843H152.777L152.716 17.3778C154.315 17.6442 155.421 18.4576 155.774 18.831C154.49 18.056 153.2 17.8219 152.716 17.8017C152.764 18.2376 152.595 18.5686 152.504 18.6797L154.654 21.1925L152.292 18.9824C151.354 20.6475 151.111 19.8301 151.051 20.1934C150.445 23.1603 148.962 23.4328 148.689 23.342C148.471 23.2693 148.639 22.7668 148.75 22.5246C148.944 22.1855 149.053 21.0916 149.083 20.587L147.267 20.4962C147.024 22.5548 145.995 23.342 145.632 23.342C145.341 23.342 145.309 22.9787 145.329 22.797L145.39 21.253C144.683 21.7475 143.161 23.0271 142.725 24.1897C142.18 25.6429 142.634 27.2475 142.877 27.3383C143.07 27.411 144.168 26.4401 144.693 25.9456C145.056 27.5502 143.694 29.0034 143.391 29.2456C143.089 29.4878 143.301 29.8511 143.27 30.1539C143.24 30.4566 142.211 33.1511 139.304 33.0905C136.398 33.03 134.763 30.1841 134.612 29.3062C134.43 28.2465 133.522 28.3979 133.491 28.3979C131.281 28.8218 132.008 32.0006 132.008 31.9704C123.864 25.7943 125.681 19.2549 125.65 19.2246C124.27 20.1692 124.106 23.2915 124.197 24.7346Z" fill="url(#paint1_linear_6_62)"/>
<path d="M142.392 29.1245L140.152 28.9731L140.909 27.9438L140.757 28.8218L141.272 28.1254L141.211 28.8218L141.877 28.2768V28.9126L142.392 28.4887V29.1245Z" fill="white"/>
<path d="M142.907 28.8823C142.64 28.8097 142.594 28.3273 142.604 28.0952C143.161 27.853 143.926 27.086 144.239 26.7328C144.069 27.8227 143.28 28.6199 142.907 28.8823Z" fill="white"/>
<path d="M139.396 28.852C139.13 28.7794 139.083 28.297 139.094 28.0649C139.651 27.8227 140.416 27.0557 140.728 26.7025C140.559 27.7924 139.77 28.5897 139.396 28.852Z" fill="white"/>
<path d="M139.147 6.94505C140.963 7.03587 143.385 7.76247 144.051 8.03495C144.717 8.30742 145.383 8.64045 145.383 8.64045C146.619 8.8342 147.493 9.62943 147.775 10.0028V11.4257C147.937 11.4762 148.508 11.674 149.501 12.0615C150.494 12.449 151.166 13.1514 151.378 13.4542L151.59 15.0587C151.771 15.2101 151.953 15.2707 152.014 16.7541C152.062 17.9409 151.57 18.8431 151.317 19.1459C151.196 18.6857 150.419 18.167 150.046 17.9651C149.531 18.1266 148.405 18.4798 148.017 18.6009C147.533 18.7523 146.049 19.3275 144.263 19.2367C142.834 19.164 142.477 18.2578 142.477 17.8138C142.961 17.844 143.234 17.7229 143.234 17.4807C143.234 17.2385 142.356 17.2083 141.417 17.4807C140.479 17.7532 138.723 18.5101 137.482 19.1156C136.24 19.7211 135.332 21.0532 135.09 22.022C134.848 22.9908 134.848 24.2623 135.544 26.0485C136.24 27.8348 137.27 28.8036 138.541 29.5604C139.558 30.1659 141.549 30.2164 142.416 30.1659C141.993 31.2558 140.812 31.8916 139.419 32.1338C138.027 32.376 135.665 30.2568 135.332 28.6219C134.757 25.6853 132.88 24.6256 132.123 24.0504C131.366 23.4752 130.125 23.5055 128.823 22.6578C127.782 21.9796 127.703 20.5385 127.794 19.9027C127.406 19.9996 127.067 21.4165 126.946 22.1128C126.34 20.1752 126.734 18.2174 127.006 17.4807C126.813 17.5534 126.179 18.3587 125.886 18.7523C125.674 17.7532 126.31 16.1486 126.946 15.0285C127.444 14.151 128.834 13.1827 129.507 12.7827C129.385 12.8253 129.014 12.8242 128.187 12.5762C126.976 12.2129 125.917 10.3661 125.674 9.79089C125.432 9.21567 125.402 7.55055 126.31 7.09642C127.218 6.6423 128.55 7.06615 129.55 7.55055C130.549 8.03495 131.608 8.27715 132.002 8.24687C132.395 8.2166 133.788 7.64137 134.515 7.42945C135.241 7.21752 137.33 6.85422 139.147 6.94505Z" fill="white"/>
<path d="M127.527 11.2926C129.441 12.5036 131.877 11.0705 132.856 10.2027C132.331 10.1219 131.16 9.88175 130.676 9.56689C130.191 9.25203 129.061 8.2247 128.557 7.75039C127.563 7.04801 126.77 7.35681 126.498 7.59901C127.055 7.55057 127.82 8.36598 128.133 8.77974C127.818 8.41644 126.871 8.20451 126.437 8.14396L126.498 8.93111C126.982 9.10065 127.588 9.52652 127.83 9.71826C127.612 9.62138 127.315 9.67789 127.194 9.71826L128.314 10.6871C128.052 10.899 127.527 11.3168 127.527 11.2926Z" fill="#0D0E12"/>
<path d="M133.037 9.99073L133.946 9.23386C132.735 9.47606 130.797 8.78983 129.979 8.41644C130.948 9.74853 132.422 10.021 133.037 9.99073Z" fill="#0D0E12"/>
<path d="M145.51 19.6787L146.903 19.2852C146.994 22.131 145.783 22.8273 145.783 22.797C145.953 22.2158 145.672 20.476 145.51 19.6787Z" fill="white"/>
<path d="M147.418 20.1026L147.327 19.2246C148.78 19.0066 150.132 19.2952 150.627 19.4668C150.651 21.4044 149.729 22.4539 149.265 22.7365C149.579 22.3248 149.699 20.6677 149.719 19.8907L149.265 20.254L149.053 19.8907L148.75 20.1631L148.538 19.8301L148.205 20.1026L147.993 19.6485L147.418 20.1026Z" fill="white"/>
<path d="M130.403 27.5805C128.684 26.8055 128.234 24.8759 128.224 24.008C128.345 24.2099 129.017 24.6135 130.736 24.6135C132.456 24.6135 133.37 25.7842 133.612 26.3695C129.646 25.3704 130.403 27.6108 130.403 27.5805Z" fill="white"/>
<path d="M138.184 11.1715C137.409 11.1472 136.771 10.7779 136.549 10.5962C136.549 10.2632 138.184 10.4146 138.457 10.4146C138.729 10.4146 138.759 9.93019 139.94 9.96046C141.121 9.99074 141.393 10.2329 141.696 10.4146C141.938 10.5599 142.947 11.888 143.422 12.5338C142.423 12.6045 140.37 12.7337 140.152 12.6852C139.879 12.6247 138.214 11.1715 138.184 11.1715Z" fill="#0D0E12"/>
<path d="M142.18 13.8659C143.391 12.0737 145.632 12.0696 146.6 12.2916C145.934 11.5045 144.057 11.777 143.089 12.2311C142.12 12.6852 141.847 13.5329 141.696 13.6237C141.575 13.6964 141.403 13.654 141.333 13.6237C141.042 13.6964 141.01 14.4008 141.03 14.7439C140.739 14.7439 140.586 14.8852 140.545 14.9558L140.788 17.832L141.847 17.5292L141.696 16.4393C141.878 16.4696 142.301 16.3485 142.422 15.7733C142.519 15.3131 141.978 15.0769 141.696 15.0164L141.968 14.5925C142.271 14.8347 142.665 14.865 142.937 14.5017C143.155 14.2111 142.523 13.9568 142.18 13.8659Z" fill="#0D0E12"/>
<path d="M135.459 19.0732C137.324 17.7411 139.809 17.0448 140.818 16.8631C140.838 17.0246 140.878 17.3415 140.878 17.3173C139.934 17.1477 136.872 18.4173 135.459 19.0732Z" fill="#0D0E12"/>
<path d="M135.308 18.5888C136.809 17.5716 139.567 16.4898 140.757 16.076V15.8943C138.093 16.7663 136.014 18.054 135.308 18.5888Z" fill="#0D0E12"/>
<path d="M136.519 16.742C138.19 16.0639 140 15.8338 140.697 15.8035V15.5613C139.219 15.5613 137.296 16.3485 136.519 16.742Z" fill="#0D0E12"/>
<path d="M146.661 13.5329C146.443 13.0485 145.904 12.6045 145.662 12.443C146.177 12.5338 147.509 13.3815 147.993 13.4724C148.477 13.5632 149.083 13.3513 149.598 13.3815C150.112 13.4118 150.445 13.7146 150.809 13.7751C151.099 13.8235 151.374 13.5935 151.475 13.4724C151.576 13.7146 151.759 14.3624 151.687 15.0164C151.596 15.8338 149.991 18.1044 149.991 18.0742C150.082 17.1659 149.325 15.2586 148.689 15.0769C148.054 14.8953 146.933 14.1384 146.661 13.5329Z" fill="#0D0E12"/>
<path d="M133.673 14.532C134.046 14.1385 134.339 13.987 134.733 14.4109C135.459 15.1935 134.279 16.1101 133.643 15.7127C133.42 15.5733 133.207 15.0238 133.673 14.532Z" fill="#0D0E12"/>
<path d="M130.615 23.1906C129.961 22.9242 130.061 22.3921 130.313 22.1613C131.039 21.4952 132.492 23.0392 132.159 23.3723C131.956 23.5754 131.433 23.5237 130.615 23.1906Z" fill="#0D0E12"/>
<path d="M131.675 21.1622C131.447 20.4938 132.032 20.0033 132.371 20.042C133.351 20.1539 133.295 22.2246 132.825 22.1915C132.539 22.1714 131.959 21.9978 131.675 21.1622Z" fill="#0D0E12"/>
<path d="M131.438 17.2265C131.864 16.6638 132.19 16.3761 132.492 16.5604C133.885 17.4081 131.857 19.4971 131.251 18.6494C131.084 18.4157 130.904 17.9298 131.438 17.2265Z" fill="#0D0E12"/>
<path d="M128.466 17.3778C128.892 16.8151 129.132 16.5151 129.404 16.7421C130.131 17.3476 129.071 19.5274 128.466 18.9218C128.263 18.7187 127.933 18.0812 128.466 17.3778Z" fill="#0D0E12"/>
<path d="M127.561 15.6113C127.934 15.2179 128.182 14.9981 128.466 15.1678C129.029 15.5045 127.83 16.8026 127.527 16.5907C127.312 16.4399 127.095 16.1032 127.561 15.6113Z" fill="#0D0E12"/>
<path d="M130.04 15.5916C130.413 15.1981 130.756 14.9981 131.039 15.1678C131.602 15.5045 130.494 16.9843 130.191 16.7723C129.976 16.6215 129.574 16.0834 130.04 15.5916Z" fill="#0D0E12"/>
<path d="M130.434 13.4421C130.807 13.0486 131.048 12.7521 131.333 12.9189C131.917 13.2604 130.676 14.9256 130.191 14.6228C129.968 14.4834 129.967 13.9339 130.434 13.4421Z" fill="#0D0E12"/>
<path d="M131.947 13.7448C132.32 13.3514 132.644 12.9274 133.098 13.1696C133.695 13.4879 132.583 15.2926 131.947 14.8953C131.724 14.7559 131.481 14.2367 131.947 13.7448Z" fill="#0D0E12"/>
<path d="M132.785 11.4093C133.158 11.0159 133.677 10.8737 133.976 11.2926C134.127 11.5045 133.421 12.689 132.785 12.2916C132.562 12.1523 132.319 11.9012 132.785 11.4093Z" fill="#0D0E12"/>
<path d="M134.218 9.56688C134.945 8.90083 135.678 8.49776 136.156 8.68891C136.307 8.74946 134.551 10.7779 134.127 10.5464C133.896 10.4204 133.69 10.0513 134.218 9.56688Z" fill="#0D0E12"/>
<path d="M134.248 12.0192C134.621 11.6257 135.117 11.2103 135.49 11.565C136.226 12.2657 135.066 13.6117 134.218 13.2302C133.612 12.9577 133.782 12.511 134.248 12.0192Z" fill="#0D0E12"/>
<path d="M136.398 13.7448C136.846 14.0503 137.064 14.2898 136.774 14.661C136.243 15.3408 134.975 14.5044 135.368 13.8659C135.611 13.4724 135.838 13.363 136.398 13.7448Z" fill="#0D0E12"/>
<path d="M134.702 16.1366C135.239 16.058 135.701 15.9517 135.701 16.5301C135.701 17.6503 133.903 17.4989 133.855 16.8934C133.834 16.6313 134.032 16.2347 134.702 16.1366Z" fill="#0D0E12"/>
<path d="M128.799 20.4659C128.829 19.4971 129.502 19.2431 129.828 19.3457C130.979 19.7082 130.161 22.1007 129.404 21.586C129.167 21.4245 128.771 21.3481 128.799 20.4659Z" fill="#0D0E12"/>
<defs>
<linearGradient id="paint0_linear_6_62" x1="139" y1="19.5" x2="4.61997" y2="19.5" gradientUnits="userSpaceOnUse">
<stop stop-color="#4FF512"/>
<stop offset="1" stop-color="#5E01FF"/>
</linearGradient>
<linearGradient id="paint1_linear_6_62" x1="156.016" y1="19.5125" x2="123.472" y2="19.5125" gradientUnits="userSpaceOnUse">
<stop offset="0.46"/>
<stop offset="0.741943" stop-color="#50E522"/>
<stop offset="1" stop-color="#51D235"/>
</linearGradient>
</defs>
</svg>
