<svg width="49" height="49" viewBox="0 0 49 49" fill="none" xmlns="http://www.w3.org/2000/svg">
<path d="M5.50669 31.241C2.84527 23.0732 6.61561 17.6408 8.83346 15.9455C7.34215 15.219 5.8126 12.6188 6.00379 10.5539C6.19498 8.48899 7.91573 7.49479 9.63647 7.49479C11.3572 7.49479 13.8427 9.21553 15.1046 9.21553C16.3665 9.21553 17.9725 7.45655 23.4024 7.49479C28.8323 7.53302 33.7651 10.5156 33.8034 10.5156C36.2506 10.7298 36.9134 12.8992 36.9389 13.9571C41.0381 15.242 41.6296 17.5516 41.4129 18.5458C41.9329 18.0257 43.2611 17.7173 43.8601 17.6281C42.5753 17.9646 41.4893 18.8644 41.107 19.2723L41.2599 19.7694C42.453 19.0352 44.7141 19.2341 45.6956 19.4253C42.7283 19.5782 41.6041 20.1773 41.4129 20.4577V20.8019C42.6977 20.8936 43.7072 21.2735 44.0513 21.4519H41.6041L41.5276 21.949C43.5466 22.2855 44.9436 23.3129 45.3897 23.7845C43.7684 22.8056 42.1394 22.5099 41.5276 22.4844C41.5888 23.035 41.3746 23.4531 41.2599 23.5933L43.9749 26.7671L40.9922 23.9757C39.8068 26.0788 39.5009 25.0464 39.4244 25.5052C38.6597 29.2526 36.786 29.5968 36.4418 29.4821C36.1665 29.3903 36.3781 28.7555 36.5183 28.4496C36.763 28.0213 36.9007 26.6397 36.9389 26.0023L34.6446 25.8876C34.3387 28.4879 33.0386 29.4821 32.5797 29.4821C32.2126 29.4821 32.1718 29.0232 32.1973 28.7938L32.2738 26.8436C31.3816 27.4682 29.4594 29.0844 28.9088 30.5527C28.2205 32.3882 28.7941 34.4149 29.1 34.5296C29.3447 34.6213 30.7315 33.3952 31.3943 32.7706C31.8532 34.7972 30.1324 36.6327 29.75 36.9386C29.3677 37.2445 29.6353 37.7034 29.5971 38.0858C29.5589 38.4682 28.2587 41.8714 24.5878 41.7949C20.9169 41.7185 18.852 38.124 18.6608 37.0151C18.4314 35.6767 17.2842 35.8679 17.246 35.8679C14.4546 36.4033 15.3723 40.4183 15.3723 40.3801C5.08606 32.5794 7.38038 24.3198 7.34215 24.2816C5.59846 25.4746 5.39197 29.4183 5.50669 31.241Z" fill="url(#paint0_linear_872_156)"/>
<path d="M28.4879 36.7857L25.6582 36.5945L26.6142 35.2944L26.423 36.4033L27.073 35.5238L26.9966 36.4033L27.8378 35.715V36.518L28.4879 35.9827V36.7857Z" fill="white"/>
<path d="M29.1379 36.4798C28.8014 36.388 28.7427 35.7787 28.7555 35.4856C29.4591 35.1796 30.4252 34.2109 30.8204 33.7648C30.6062 35.1414 29.6095 36.1484 29.1379 36.4798Z" fill="white"/>
<path d="M24.7038 36.4415C24.3673 36.3497 24.3087 35.7405 24.3214 35.4473C25.025 35.1414 25.9912 34.1727 26.3863 33.7266C26.1722 35.1032 25.1754 36.1101 24.7038 36.4415Z" fill="white"/>
<path d="M24.3887 8.77193C26.6831 8.88664 29.7422 9.80437 30.5834 10.1485C31.4247 10.4927 32.2659 10.9133 32.2659 10.9133C33.8261 11.158 34.9299 12.1624 35.2868 12.634V14.4313C35.4907 14.495 36.2122 14.7448 37.4664 15.2343C38.7206 15.7237 39.5695 16.6109 39.8372 16.9933L40.1049 19.0199C40.3343 19.2111 40.5637 19.2876 40.6402 21.1613C40.7014 22.6602 40.0794 23.7998 39.7607 24.1821C39.6078 23.6009 38.6263 22.9458 38.1547 22.6908C37.5046 22.8948 36.0822 23.3409 35.5927 23.4938C34.9809 23.685 33.1072 24.4116 30.8511 24.2969C29.0462 24.2051 28.595 23.0605 28.595 22.4996C29.2068 22.5379 29.551 22.3849 29.551 22.079C29.551 21.7731 28.4421 21.7349 27.2567 22.079C26.0713 22.4232 23.8534 23.3791 22.2856 24.1439C20.7178 24.9087 19.5707 26.5912 19.2648 27.8148C18.9588 29.0385 18.9588 30.6445 19.8383 32.9006C20.7178 35.1567 22.0179 36.3803 23.624 37.3363C24.9088 38.101 27.4224 38.1648 28.5185 38.101C27.9832 39.4776 26.4919 40.2806 24.7329 40.5866C22.9739 40.8925 19.9913 38.2158 19.5707 36.1509C18.8441 32.4417 16.4733 31.1034 15.5174 30.3768C14.5614 29.6503 12.9936 29.6885 11.3493 28.6178C10.0339 27.7613 9.9345 25.9411 10.0492 25.1381C9.55976 25.2605 9.13149 27.05 8.97853 27.9295C8.21376 25.4823 8.71086 23.0095 9.05501 22.079C8.81028 22.1708 8.00982 23.1879 7.64017 23.685C7.3725 22.4232 8.17551 20.3965 8.97853 18.9817C9.60752 17.8734 11.3631 16.6504 12.2139 16.1451C12.0593 16.199 11.5905 16.1976 10.5463 15.8843C9.01677 15.4255 7.67841 13.0929 7.3725 12.3664C7.06659 11.6398 7.02835 9.5367 8.17551 8.96312C9.32268 8.38954 11.0052 8.92488 12.2671 9.5367C13.5289 10.1485 14.8673 10.4544 15.3644 10.4162C15.8615 10.378 17.6205 9.65142 18.5382 9.38375C19.4559 9.11608 22.0944 8.65721 24.3887 8.77193Z" fill="white"/>
<path d="M9.71253 14.263C12.1292 15.7926 15.2062 13.9826 16.4426 12.8864C15.7797 12.7845 14.3012 12.4811 13.6894 12.0834C13.0775 11.6858 11.65 10.3882 11.0126 9.78911C9.75842 8.90197 8.75656 9.292 8.41241 9.59791C9.11601 9.53673 10.0822 10.5666 10.4773 11.0892C10.0796 10.6304 8.88403 10.3627 8.33594 10.2862L8.41241 11.2804C9.02423 11.4946 9.78901 12.0324 10.0949 12.2746C9.8196 12.1523 9.44486 12.2236 9.29191 12.2746L10.7067 13.4983C10.3753 13.7659 9.71253 14.2936 9.71253 14.263Z" fill="#0D0E12"/>
<path d="M16.6722 12.6188L17.8193 11.6628C16.2898 11.9687 13.8425 11.102 12.8101 10.6304C14.0337 12.3129 15.8947 12.657 16.6722 12.6188Z" fill="#0D0E12"/>
<path d="M32.4263 24.8552L34.1853 24.3581C34.3 27.9525 32.7704 28.832 32.7704 28.7938C32.9846 28.0596 32.6302 25.8621 32.4263 24.8552Z" fill="white"/>
<path d="M34.8353 25.3905L34.7206 24.2816C36.5561 24.0063 38.2641 24.3708 38.8886 24.5875C38.9192 27.0348 37.7542 28.3604 37.1679 28.7173C37.5656 28.1972 37.716 26.1043 37.7415 25.1229L37.1679 25.5817L36.9002 25.1229L36.5178 25.467L36.2501 25.0464L35.8295 25.3905L35.5618 24.8169L34.8353 25.3905Z" fill="white"/>
<path d="M13.3455 34.8355C11.1735 33.8566 10.605 31.4195 10.5923 30.3233C10.7452 30.5782 11.5941 31.0881 13.7661 31.0881C15.9381 31.0881 17.0929 32.5667 17.3988 33.3059C12.3895 32.0441 13.3455 34.8737 13.3455 34.8355Z" fill="white"/>
<path d="M23.1728 14.1101C22.1939 14.0795 21.3883 13.613 21.1079 13.3836C21.1079 12.9629 23.1728 13.1541 23.517 13.1541C23.8611 13.1541 23.8993 12.5423 25.3906 12.5805C26.882 12.6188 27.2261 12.9247 27.6085 13.1541C27.9144 13.3377 29.189 15.0151 29.7881 15.8308C28.5262 15.9201 25.9336 16.0832 25.6583 16.022C25.3142 15.9456 23.211 14.1101 23.1728 14.1101Z" fill="#0D0E12"/>
<path d="M28.2202 17.5133C29.7497 15.2496 32.5794 15.2445 33.803 15.5249C32.9618 14.5307 30.591 14.8749 29.3673 15.4484C28.1437 16.022 27.7995 17.0927 27.6083 17.2074C27.4554 17.2992 27.2387 17.2457 27.1495 17.2074C26.7824 17.2992 26.7416 18.1889 26.7671 18.6223C26.4 18.6223 26.2063 18.8007 26.1553 18.8899L26.4612 22.5226L27.7995 22.1402L27.6083 20.7636C27.8378 20.8019 28.3731 20.6489 28.5261 19.9224C28.6484 19.3411 27.9652 19.0429 27.6083 18.9664L27.9525 18.4311C28.3349 18.737 28.832 18.7752 29.1761 18.3164C29.4515 17.9493 28.6535 17.6281 28.2202 17.5133Z" fill="#0D0E12"/>
<path d="M19.7312 24.0904C22.0867 22.4079 25.2249 21.5284 26.4995 21.299C26.525 21.5029 26.576 21.9031 26.576 21.8726C25.3829 21.6584 21.5157 23.2619 19.7312 24.0904Z" fill="#0D0E12"/>
<path d="M19.54 23.4786C21.4367 22.1938 24.919 20.8274 26.423 20.3048V20.0753C23.058 21.1766 20.4323 22.803 19.54 23.4786Z" fill="#0D0E12"/>
<path d="M21.0696 21.146C23.1804 20.2895 25.467 19.9989 26.3465 19.9606V19.6547C24.4805 19.6547 22.051 20.6489 21.0696 21.146Z" fill="#0D0E12"/>
<path d="M33.8796 17.0927C33.6042 16.4809 32.9236 15.9201 32.6177 15.7161C33.2677 15.8308 34.9502 16.9015 35.5621 17.0162C36.1739 17.131 36.9387 16.8633 37.5887 16.9015C38.2388 16.9398 38.6594 17.3222 39.1183 17.3986C39.4854 17.4598 39.8321 17.1692 39.9595 17.0162C40.087 17.3222 40.319 18.1405 40.2272 18.9664C40.1125 19.9989 38.0858 22.8668 38.0858 22.8285C38.2005 21.6814 37.2446 19.2723 36.4416 19.0429C35.6385 18.8135 34.2237 17.8575 33.8796 17.0927Z" fill="#0D0E12"/>
<path d="M17.4753 18.3546C17.9464 17.8576 18.3166 17.6663 18.8137 18.2016C19.7314 19.1901 18.2401 20.3478 17.4371 19.8459C17.1555 19.6699 16.8866 18.9758 17.4753 18.3546Z" fill="#0D0E12"/>
<path d="M13.6132 29.2909C12.7873 28.9544 12.9128 28.2823 13.2308 27.9908C14.1486 27.1495 15.984 29.0997 15.5634 29.5203C15.3069 29.7768 14.6457 29.7115 13.6132 29.2909Z" fill="#0D0E12"/>
<path d="M14.9516 26.7289C14.6641 25.8846 15.4024 25.2651 15.8311 25.314C17.068 25.4554 16.998 28.0708 16.4047 28.029C16.0428 28.0035 15.3109 27.7842 14.9516 26.7289Z" fill="#0D0E12"/>
<path d="M14.6519 21.7579C15.1907 21.0471 15.6016 20.6838 15.984 20.9166C17.743 21.9873 15.181 24.6258 14.4163 23.5551C14.2054 23.2599 13.9784 22.6463 14.6519 21.7579Z" fill="#0D0E12"/>
<path d="M10.8983 21.949C11.4372 21.2383 11.7398 20.8594 12.0837 21.146C13.0014 21.9108 11.6631 24.664 10.8983 23.8992C10.6418 23.6427 10.2248 22.8374 10.8983 21.949Z" fill="#0D0E12"/>
<path d="M9.75546 19.7179C10.2265 19.2209 10.5403 18.9434 10.8983 19.1576C11.6091 19.583 10.0953 21.2225 9.71291 20.9548C9.44083 20.7644 9.16668 20.3391 9.75546 19.7179Z" fill="#0D0E12"/>
<path d="M12.8867 19.693C13.3577 19.196 13.7906 18.9434 14.1486 19.1576C14.8594 19.583 13.4602 21.4519 13.0779 21.1843C12.8058 20.9938 12.2979 20.3142 12.8867 19.693Z" fill="#0D0E12"/>
<path d="M13.3838 16.978C13.8548 16.481 14.1601 16.1065 14.5202 16.3172C15.2575 16.7486 13.6897 18.8517 13.0779 18.4693C12.7963 18.2933 12.795 17.5992 13.3838 16.978Z" fill="#0D0E12"/>
<path d="M15.2958 17.3604C15.7668 16.8634 16.1752 16.3279 16.7488 16.6339C17.5026 17.0358 16.0988 19.3153 15.2958 18.8135C15.0141 18.6374 14.707 17.9816 15.2958 17.3604Z" fill="#0D0E12"/>
<path d="M16.3538 14.4105C16.8248 13.9136 17.4799 13.7341 17.8577 14.2631C18.0489 14.5307 17.1568 16.0268 16.3538 15.5249C16.0721 15.3489 15.765 15.0318 16.3538 14.4105Z" fill="#0D0E12"/>
<path d="M18.1636 12.0834C19.0814 11.2422 20.0073 10.7331 20.6109 10.9745C20.8021 11.051 18.5843 13.613 18.0484 13.3206C17.7569 13.1615 17.4962 12.6953 18.1636 12.0834Z" fill="#0D0E12"/>
<path d="M18.2019 15.1808C18.6729 14.6838 19.2986 14.1592 19.7697 14.6072C20.7 15.4922 19.2343 17.1922 18.1636 16.7103C17.3989 16.3662 17.6131 15.802 18.2019 15.1808Z" fill="#0D0E12"/>
<path d="M20.9168 17.3604C21.4825 17.7462 21.758 18.0487 21.3919 18.5175C20.7211 19.3762 19.1204 18.3198 19.6167 17.5133C19.9226 17.0162 20.2097 16.8781 20.9168 17.3604Z" fill="#0D0E12"/>
<path d="M18.7754 20.3812C19.453 20.2821 20.0373 20.1478 20.0373 20.8784C20.0373 22.2932 17.7653 22.102 17.7048 21.3372C17.6786 21.0061 17.9286 20.5052 18.7754 20.3812Z" fill="#0D0E12"/>
<path d="M11.3189 25.8494C11.3572 24.6258 12.2075 24.3049 12.619 24.4346C14.0721 24.8924 13.0396 27.9143 12.0837 27.2642C11.7837 27.0602 11.2841 26.9637 11.3189 25.8494Z" fill="#0D0E12"/>
<defs>
<linearGradient id="paint0_linear_872_156" x1="45.6956" y1="24.6452" x2="4.59131" y2="24.6452" gradientUnits="userSpaceOnUse">
<stop offset="0.0865385" stop-color="#50E522"/>
<stop offset="0.442308"/>
<stop offset="1" stop-color="#014747"/>
</linearGradient>
</defs>
</svg>
