<svg width="128" height="128" viewBox="0 0 128 128" fill="none" xmlns="http://www.w3.org/2000/svg">
<path d="M14.4905 82.2139C7.48668 60.7196 17.4087 46.4236 23.2452 41.9624C19.3206 40.0504 15.2955 33.2076 15.7986 27.7737C16.3018 22.3397 20.8301 19.7234 25.3584 19.7234C29.8867 19.7234 36.4276 24.2517 39.7483 24.2517C43.0691 24.2517 47.2955 19.6227 61.5848 19.7234C75.8741 19.824 88.8552 27.673 88.9558 27.673C95.3961 28.2366 97.1403 33.9456 97.2074 36.7296C107.995 40.1108 109.551 46.1888 108.981 48.8051C110.35 47.4366 113.845 46.6248 115.421 46.39C112.04 47.2756 109.182 49.6437 108.176 50.7171L108.578 52.0252C111.718 50.0932 117.669 50.6164 120.251 51.1196C112.443 51.5221 109.484 53.0986 108.981 53.8366V54.7422C112.362 54.9837 115.019 55.9833 115.924 56.4529H109.484L109.283 57.7611C114.596 58.6466 118.272 61.3502 119.446 62.5913C115.18 60.0152 110.893 59.237 109.283 59.1699C109.444 60.619 108.88 61.7192 108.578 62.0881L115.723 70.4403L107.874 63.0944C104.755 68.629 103.95 65.912 103.748 67.1196C101.736 76.9812 96.8049 77.8869 95.8992 77.585C95.1747 77.3435 95.7315 75.673 96.1005 74.868C96.7445 73.741 97.1068 70.1049 97.2074 68.4278L91.1697 68.1259C90.3647 74.9686 86.9433 77.585 85.7357 77.585C84.7697 77.585 84.6623 76.3774 84.7294 75.7737L84.9307 70.6416C82.5827 72.2852 77.5244 76.5384 76.0753 80.4026C74.264 85.2328 75.7735 90.5661 76.5785 90.868C77.2225 91.1095 80.872 87.8827 82.6162 86.2391C83.8238 91.5724 79.2955 96.4026 78.2892 97.2076C77.2829 98.0127 77.9873 99.2202 77.8867 100.227C77.786 101.233 74.3647 110.189 64.7043 109.988C55.0439 109.786 49.6099 100.327 49.1068 97.4089C48.503 93.8869 45.4842 94.39 45.3835 94.39C38.0376 95.7988 40.4527 106.365 40.4527 106.264C13.3835 85.7359 19.4213 64.0001 19.3206 63.8995C14.732 67.0391 14.1886 77.4173 14.4905 82.2139Z" fill="#464663"/>
<path d="M74.968 96.8051L67.5215 96.302L70.0372 92.8806L69.5341 95.7988L71.2448 93.4844L71.0435 95.7988L73.2573 93.9875V96.1007L74.968 94.6919V96.8051Z" fill="#0D0E12"/>
<path d="M76.6794 96C75.7939 95.7585 75.6396 94.1552 75.6731 93.3837C77.5247 92.5786 80.0672 90.0294 81.1071 88.8554C80.5436 92.478 77.9205 95.1279 76.6794 96Z" fill="#0D0E12"/>
<path d="M65.0109 95.8995C64.1254 95.658 63.9711 94.0546 64.0047 93.2831C65.8562 92.4781 68.3988 89.9288 69.4386 88.7548C68.8751 92.3775 66.252 95.0274 65.0109 95.8995Z" fill="#0D0E12"/>
<path d="M64.1813 23.0838C70.2191 23.3857 78.2694 25.8008 80.4832 26.7064C82.697 27.6121 84.9109 28.719 84.9109 28.719C89.0165 29.363 91.9214 32.0062 92.8606 33.2473V37.9769C93.3973 38.1446 95.2958 38.802 98.5964 40.0901C101.897 41.3781 104.131 43.7127 104.835 44.719L105.54 50.0523C106.144 50.5555 106.747 50.7567 106.949 55.6876C107.11 59.6322 105.473 62.631 104.634 63.6372C104.232 62.1077 101.649 60.3836 100.408 59.7127C98.697 60.2494 94.9537 61.4234 93.6656 61.8259C92.0555 62.3291 87.1247 64.241 81.1876 63.9391C76.4379 63.6976 75.2505 60.6855 75.2505 59.2096C76.8606 59.3102 77.7662 58.9077 77.7662 58.1026C77.7662 57.2976 74.848 57.197 71.7285 58.1026C68.609 59.0083 62.7725 61.524 58.6467 63.5366C54.521 65.5492 51.5021 69.9769 50.6971 73.197C49.892 76.4171 49.892 80.6435 52.2065 86.5806C54.521 92.5177 57.9423 95.7379 62.1687 98.2536C65.5499 100.266 72.1646 100.434 75.0492 100.266C73.6404 103.889 69.7159 106.002 65.087 106.807C60.4581 107.612 52.609 100.568 51.5021 95.1341C49.5901 85.3731 43.3511 81.8511 40.8354 79.9391C38.3197 78.0272 34.1939 78.1278 29.8669 75.3102C26.4052 73.0561 26.1436 68.2662 26.4455 66.153C25.1574 66.475 24.0304 71.1844 23.6279 73.4989C21.6153 67.0586 22.9235 60.5513 23.8291 58.1026C23.1851 58.3442 21.0786 61.0209 20.1059 62.3291C19.4015 59.0083 21.5147 53.675 23.6279 49.9517C25.2831 47.0353 29.9032 43.8167 32.142 42.487C31.7351 42.6288 30.5016 42.6252 27.7537 41.8008C23.7285 40.5932 20.2065 34.4548 19.4015 32.5429C18.5964 30.6309 18.4958 25.0964 21.5147 23.5869C24.5335 22.0775 28.9612 23.4863 32.282 25.0964C35.6027 26.7064 39.1247 27.5114 40.4329 27.4108C41.7411 27.3102 46.37 25.3982 48.7851 24.6938C51.2002 23.9894 58.1436 22.7819 64.1813 23.0838Z" fill="#0D0E12"/>
<path d="M43.2708 33.912C40.0181 36.7959 31.9243 41.5572 25.5653 37.5379C25.5619 37.5383 25.5601 37.5372 25.5601 37.5346C25.5619 37.5357 25.5636 37.5368 25.5653 37.5379C25.6702 37.5275 27.3321 36.2041 28.1765 35.5221L24.4532 32.3019C24.8557 32.1678 25.8419 31.9799 26.5664 32.3019C25.7614 31.6646 23.7488 30.2491 22.1388 29.6856L21.9375 27.0692C23.3798 27.2705 26.5262 27.9749 27.5727 29.1824C26.5329 27.8072 23.9903 25.0969 22.1388 25.2579C23.0444 24.4529 25.6809 23.4265 28.9815 25.7611C30.6587 27.3376 34.4155 30.7522 36.0256 31.7988C37.6356 32.8453 41.5266 33.6437 43.2708 33.912Z" fill="#464663"/>
<path d="M43.8745 33.2074L46.8933 30.6917C42.8682 31.4967 36.4279 29.2158 33.7109 27.9747C36.9311 32.4024 41.8283 33.3081 43.8745 33.2074Z" fill="#464663"/>
<path d="M85.333 65.409L89.9619 64.1008C90.2638 73.5599 86.2387 75.8744 86.2387 75.7737C86.8022 73.8417 85.8697 68.0588 85.333 65.409Z" fill="#0D0E12"/>
<path d="M91.6726 66.8178L91.3707 63.8995C96.2009 63.175 100.696 64.1343 102.339 64.7045C102.42 71.1448 99.354 74.6333 97.811 75.5725C98.8575 74.2039 99.2533 68.6962 99.3204 66.1134L97.811 67.3209L97.1066 66.1134L96.1003 67.019L95.3959 65.9121L94.289 66.8178L93.5846 65.3083L91.6726 66.8178Z" fill="#0D0E12"/>
<path d="M35.1193 91.673C29.4036 89.0969 27.9076 82.6834 27.874 79.7988C28.2765 80.4696 30.5105 81.8113 36.2262 81.8113C41.9419 81.8113 44.9809 85.7023 45.786 87.6478C32.6036 84.3271 35.1193 91.7736 35.1193 91.673Z" fill="#0D0E12"/>
<path d="M60.9818 37.132C58.4057 37.0515 56.2858 35.8239 55.5479 35.2201C55.5479 34.1132 60.9818 34.6163 61.8875 34.6163C62.7931 34.6163 62.8938 33.0063 66.8183 33.1069C70.7428 33.2075 71.6485 34.0125 72.6548 34.6163C73.4598 35.0993 76.8141 39.5136 78.3906 41.6603C75.0699 41.8951 68.2472 42.3245 67.5227 42.1635C66.617 41.9622 61.0824 37.132 60.9818 37.132Z" fill="#464663"/>
<path d="M74.2636 46.0877C78.2887 40.1305 85.7352 40.117 88.9554 40.855C86.7415 38.2386 80.5025 39.1443 77.2824 40.6537C74.0623 42.1632 73.1566 44.9808 72.6535 45.2827C72.251 45.5242 71.6807 45.3833 71.4459 45.2827C70.4799 45.5242 70.3726 47.8655 70.4397 49.0059C69.4736 49.0059 68.9638 49.4755 68.8296 49.7103L69.6346 59.2701L73.1566 58.2638L72.6535 54.6412C73.2573 54.7418 74.6661 54.3393 75.0686 52.4273C75.3906 50.8978 73.5927 50.1129 72.6535 49.9116L73.5591 48.5028C74.5654 49.3078 75.8736 49.4085 76.7793 48.2009C77.5038 47.2349 75.404 46.3896 74.2636 46.0877Z" fill="#464663"/>
<path d="M51.9245 63.3961C58.1233 58.9685 66.3816 56.654 69.7358 56.0502C69.7979 56.5465 69.9173 57.4845 69.9349 57.5593C69.9356 57.5594 69.9364 57.5595 69.9371 57.5597C69.9371 57.5657 69.9363 57.5653 69.9349 57.5593C66.7927 56.9981 56.6195 61.2163 51.9245 63.3961Z" fill="#464663"/>
<path d="M51.4214 61.7861C56.4126 58.4049 65.5765 54.8091 69.5346 53.4339V52.8301C60.6792 55.7282 53.7694 60.0083 51.4214 61.7861Z" fill="#464663"/>
<path d="M55.4465 55.6477C61.0013 53.3936 67.0189 52.6288 69.3333 52.5282V51.7232C64.4226 51.7232 58.0294 54.3395 55.4465 55.6477Z" fill="#464663"/>
<path d="M89.1567 44.9811C88.4322 43.371 86.641 41.8951 85.8359 41.3584C87.5466 41.6603 91.9743 44.4779 93.5844 44.7798C95.1944 45.0817 97.207 44.3773 98.9177 44.4779C100.628 44.5786 101.735 45.5848 102.943 45.7861C103.909 45.9471 104.821 45.1823 105.157 44.7798C105.492 45.5848 106.103 47.7383 105.861 49.9119C105.559 52.6289 100.226 60.176 100.226 60.0754C100.528 57.0565 98.012 50.7169 95.8988 50.1131C93.7856 49.5094 90.0624 46.9936 89.1567 44.9811Z" fill="#464663"/>
<path d="M45.9874 48.3018C47.2269 46.994 48.2012 46.4905 49.5093 47.8993C51.9245 50.5005 47.9999 53.5471 45.8867 52.2264C45.1456 51.7631 44.4379 49.9366 45.9874 48.3018Z" fill="#464663"/>
<path d="M35.8238 77.0817C33.6502 76.1962 33.9806 74.4276 34.8175 73.6603C37.2326 71.4465 42.0628 76.5786 40.9559 77.6855C40.2808 78.3605 38.5408 78.1886 35.8238 77.0817Z" fill="#464663"/>
<path d="M39.3458 70.3396C38.5892 68.1178 40.5322 66.4874 41.6603 66.6163C44.9153 66.9882 44.7313 73.8709 43.1697 73.7609C42.2174 73.6939 40.2915 73.1168 39.3458 70.3396Z" fill="#464663"/>
<path d="M38.5571 57.2578C39.9751 55.3875 41.0565 54.4314 42.0628 55.044C46.6917 57.8616 39.9496 64.805 37.937 61.9874C37.3822 61.2105 36.7847 59.5957 38.5571 57.2578Z" fill="#464663"/>
<path d="M28.6793 57.7609C30.0973 55.8906 30.8938 54.8935 31.7988 55.6477C34.2137 57.6603 30.6918 64.9056 28.6794 62.893C28.0043 62.2179 26.9069 60.0989 28.6793 57.7609Z" fill="#464663"/>
<path d="M25.6717 51.8894C26.9113 50.5816 27.7371 49.8513 28.6792 50.415C30.5497 51.5344 26.566 55.849 25.5598 55.1446C24.8438 54.6434 24.1223 53.5242 25.6717 51.8894Z" fill="#464663"/>
<path d="M33.9118 51.8238C35.1514 50.516 36.2905 49.8513 37.2326 50.415C39.1032 51.5344 35.4212 56.4528 34.4149 55.7484C33.6989 55.2471 32.3624 53.4586 33.9118 51.8238Z" fill="#464663"/>
<path d="M35.2201 44.6792C36.4596 43.3713 37.263 42.3858 38.2106 42.9402C40.1509 44.0754 36.0251 49.61 34.4151 48.6037C33.6739 48.1405 33.6706 46.314 35.2201 44.6792Z" fill="#464663"/>
<path d="M40.2516 45.6855C41.4911 44.3776 42.566 42.9685 44.0754 43.7735C46.059 44.8314 42.3648 50.8301 40.2516 49.5094C39.5104 49.0462 38.7021 47.3203 40.2516 45.6855Z" fill="#464663"/>
<path d="M43.0358 37.9227C44.2753 36.6148 45.9993 36.1425 46.9936 37.5345C47.4968 38.2389 45.149 42.176 43.0358 40.8553C42.2947 40.3921 41.4864 39.5575 43.0358 37.9227Z" fill="#464663"/>
<path d="M47.7986 31.7987C50.2138 29.5848 52.6505 28.2451 54.2389 28.8804C54.7421 29.0817 48.9056 35.8238 47.4954 35.0544C46.7282 34.6358 46.0421 33.4087 47.7986 31.7987Z" fill="#464663"/>
<path d="M47.8993 39.9496C49.1388 38.6418 50.7855 37.2612 52.0251 38.4402C54.4734 40.769 50.6163 45.2428 47.7986 43.9748C45.7861 43.0691 46.3498 41.5844 47.8993 39.9496Z" fill="#464663"/>
<path d="M55.044 45.6855C56.5326 46.7008 57.2577 47.4968 56.294 48.7305C54.5288 50.9903 50.3164 48.2103 51.6224 46.088C52.4274 44.7798 53.1832 44.4163 55.044 45.6855Z" fill="#464663"/>
<path d="M49.4087 53.6352C51.1916 53.3742 52.7295 53.0209 52.7295 54.9433C52.7294 58.6666 46.7503 58.1635 46.5912 56.1509C46.5223 55.2796 47.18 53.9614 49.4087 53.6352Z" fill="#464663"/>
<path d="M29.7861 68.0251C29.8868 64.805 32.1246 63.9606 33.2075 64.3018C37.0314 65.5066 34.3144 73.4591 31.7986 71.7484C31.0092 71.2116 29.6945 70.9575 29.7861 68.0251Z" fill="#464663"/>
</svg>
